<svg id="svg" version="1.1" xmlns="http://www.w3.org/2000/svg" xmlns:xlink="http://www.w3.org/1999/xlink" width="400" height="400" viewBox="0, 0, 400,400"><g id="svgg"><path id="path0" d="M187.109 98.394 C 181.134 98.975,177.489 101.154,176.584 104.688 C 175.901 107.350,175.861 107.422,175.056 107.422 C 170.078 107.422,152.448 116.413,152.975 118.683 C 153.083 119.144,152.180 119.959,149.903 121.457 C 138.172 129.177,124.928 148.589,121.103 163.672 C 120.203 167.219,119.264 173.517,118.903 178.425 C 118.646 181.921,118.602 182.052,117.619 182.260 C 109.894 183.897,106.922 187.923,106.703 197.045 C 106.356 211.529,109.938 215.491,130.775 223.670 C 144.674 229.126,161.078 233.142,173.633 234.164 C 175.352 234.304,179.658 234.693,183.203 235.030 C 208.606 237.440,247.425 232.279,267.328 223.844 C 278.389 219.156,280.361 218.206,283.594 216.011 C 296.491 207.256,295.403 184.253,281.979 181.874 L 280.560 181.622 280.280 177.823 C 278.716 156.630,264.826 131.771,248.174 120.362 C 247.350 119.798,246.062 118.759,245.311 118.054 C 240.323 113.370,230.766 108.652,222.656 106.870 C 221.962 106.718,221.332 106.003,220.478 104.402 C 219.060 101.743,216.812 99.885,213.948 99.004 C 211.660 98.301,192.540 97.866,187.109 98.394 M195.075 107.259 C 195.206 107.598,195.313 120.260,195.313 135.396 C 195.313 165.554,195.270 164.977,197.606 166.185 C 199.826 167.333,202.496 166.510,202.884 164.558 C 203.002 163.963,203.082 152.402,203.061 138.867 C 203.039 125.332,203.045 112.579,203.074 110.528 L 203.125 106.798 206.543 107.138 C 208.423 107.325,210.752 107.704,211.719 107.979 L 213.477 108.480 213.564 145.158 C 213.612 165.331,213.656 182.120,213.661 182.466 C 213.709 185.333,217.735 185.948,220.124 183.454 C 222.367 181.113,222.266 182.817,222.266 147.600 L 222.266 116.001 223.340 116.262 C 224.385 116.517,230.143 118.382,234.272 119.804 C 236.747 120.655,236.753 119.722,234.210 128.250 C 231.348 137.844,230.078 142.417,230.078 143.135 C 230.078 143.997,232.963 145.344,235.330 145.588 L 237.358 145.798 238.017 144.072 C 238.379 143.123,239.099 140.333,239.615 137.872 C 240.132 135.412,241.010 132.383,241.566 131.141 C 242.123 129.900,242.578 128.537,242.578 128.114 C 242.578 126.994,243.198 127.159,245.194 128.809 C 261.585 142.355,272.656 164.969,272.656 184.903 C 272.656 186.892,272.589 187.041,271.582 187.292 C 270.991 187.439,269.640 188.092,268.579 188.743 C 265.746 190.482,247.122 196.471,246.496 195.845 C 246.392 195.741,246.303 194.669,246.298 193.464 L 246.289 191.272 249.023 190.795 C 262.786 188.391,265.629 186.538,263.472 181.375 L 262.882 179.963 259.859 180.209 C 258.196 180.344,254.727 180.906,252.148 181.458 C 249.570 182.010,246.406 182.635,245.117 182.848 C 239.064 183.847,237.891 185.442,237.891 192.670 C 237.891 196.394,237.767 197.658,237.402 197.664 C 236.974 197.671,232.453 198.206,221.289 199.573 C 204.528 201.625,178.716 200.764,162.453 197.610 L 160.257 197.184 160.216 191.507 C 160.157 183.392,161.168 184.323,149.940 182.040 C 145.718 181.181,141.795 180.300,141.223 180.083 C 137.902 178.820,136.138 180.077,136.135 183.709 C 136.132 187.028,139.943 189.069,149.094 190.647 C 152.823 191.291,152.828 191.294,152.511 193.684 C 152.274 195.470,152.152 195.673,151.415 195.514 C 142.303 193.546,135.604 191.433,129.155 188.490 L 126.083 187.089 126.354 184.462 C 127.635 172.058,129.980 159.954,131.632 157.227 C 132.374 156.000,134.895 151.323,136.790 147.656 C 137.401 146.475,138.694 144.541,139.664 143.359 C 140.634 142.178,141.882 140.508,142.436 139.648 C 144.485 136.473,154.711 126.846,155.353 127.488 C 155.614 127.749,157.378 133.922,158.977 140.166 C 160.536 146.255,161.048 146.645,165.039 144.785 C 168.138 143.340,168.130 143.370,166.734 138.053 C 166.061 135.493,164.776 130.556,163.878 127.083 L 162.245 120.767 165.595 119.525 C 170.722 117.625,173.923 116.518,175.010 116.270 L 175.996 116.045 176.102 147.769 C 176.160 165.217,176.312 180.085,176.438 180.810 C 176.776 182.751,179.712 185.716,180.917 185.333 C 182.376 184.870,183.900 183.568,184.402 182.356 C 184.885 181.190,184.634 115.297,184.128 110.512 L 183.898 108.329 185.601 107.877 C 190.489 106.580,194.709 106.305,195.075 107.259 M282.988 192.668 C 283.463 193.347,283.594 194.679,283.594 198.856 C 283.594 206.371,283.082 207.036,273.969 211.369 C 262.933 216.616,251.965 220.402,242.870 222.104 C 241.098 222.435,238.330 223.038,236.719 223.443 C 206.830 230.951,162.242 227.072,130.469 214.200 C 117.379 208.897,115.234 206.691,115.234 198.530 C 115.234 194.094,115.519 192.862,116.763 191.907 C 117.639 191.234,117.789 191.272,119.226 192.534 C 124.844 197.466,143.893 203.460,162.695 206.212 C 186.324 209.670,198.408 209.987,223.242 207.804 C 246.473 205.761,274.455 197.995,280.034 192.041 C 281.074 190.932,281.894 191.106,282.988 192.668 " stroke="none" fill="#161f28" fill-rule="evenodd"></path><path id="path1" d="M190.820 107.074 C 189.531 107.260,187.598 107.594,186.523 107.815 L 184.570 108.218 184.704 145.454 L 184.838 182.690 183.169 184.118 C 181.263 185.750,180.232 185.892,178.753 184.729 C 176.160 182.689,176.294 184.428,175.975 148.710 L 175.686 116.365 174.464 116.624 C 173.792 116.767,171.007 117.743,168.274 118.793 C 165.541 119.844,163.124 120.703,162.903 120.703 C 162.299 120.703,162.759 122.721,166.199 135.155 C 167.172 138.674,167.969 141.957,167.969 142.449 C 167.969 143.833,164.421 145.748,162.109 145.612 L 160.352 145.508 159.707 143.359 C 159.352 142.178,158.230 138.179,157.212 134.473 C 156.195 130.767,155.255 127.736,155.123 127.738 C 153.937 127.755,144.411 136.950,142.266 140.149 C 141.686 141.014,140.420 142.749,139.454 144.005 C 131.826 153.920,129.287 161.947,126.423 185.204 L 126.200 187.010 130.385 188.795 C 137.326 191.756,143.679 193.753,151.660 195.482 C 152.244 195.608,152.344 195.327,152.344 193.546 L 152.344 191.462 150.098 191.037 C 139.006 188.941,135.289 186.966,135.754 183.417 C 136.256 179.584,138.059 178.812,143.104 180.269 C 144.211 180.589,148.071 181.467,151.682 182.220 C 161.057 184.176,160.547 183.638,160.547 191.576 C 160.547 194.705,160.679 197.266,160.840 197.267 C 161.001 197.268,163.418 197.604,166.211 198.014 C 181.398 200.242,192.550 200.918,205.545 200.399 C 216.433 199.964,219.452 199.693,234.961 197.753 L 237.305 197.460 237.522 192.578 C 237.794 186.493,238.794 184.306,241.697 183.444 C 245.951 182.182,260.531 179.630,262.006 179.889 C 264.521 180.331,265.148 185.494,262.891 187.167 C 261.591 188.130,254.381 190.070,247.949 191.187 L 246.484 191.442 246.484 193.725 L 246.484 196.008 253.613 193.934 C 262.408 191.374,265.995 190.089,268.319 188.663 C 269.308 188.056,270.602 187.439,271.195 187.291 C 272.666 186.925,272.632 187.111,272.222 181.636 C 271.290 169.200,268.127 159.400,261.332 147.895 C 258.015 142.280,250.470 133.117,247.119 130.634 C 246.018 129.818,244.643 128.720,244.064 128.194 L 243.010 127.237 242.736 128.365 C 242.585 128.985,242.038 130.459,241.520 131.641 C 241.001 132.822,240.167 135.846,239.666 138.360 C 238.102 146.203,236.905 147.214,232.031 144.812 C 229.331 143.481,229.408 143.030,235.939 121.794 C 236.214 120.898,236.134 120.698,235.417 120.489 C 234.951 120.353,233.430 119.796,232.036 119.251 C 229.481 118.252,223.575 116.429,222.852 116.415 C 222.600 116.411,222.461 120.537,222.461 128.028 C 222.461 134.419,222.373 149.060,222.266 160.563 L 222.070 181.478 221.094 182.679 C 218.652 185.683,216.346 186.195,214.433 184.159 L 213.534 183.201 213.615 146.386 C 213.660 125.911,213.544 109.344,213.355 109.061 C 212.910 108.396,209.519 107.563,205.941 107.239 L 203.092 106.981 203.145 135.946 L 203.198 164.911 202.312 165.854 C 200.155 168.150,196.100 166.520,195.291 163.032 C 195.098 162.202,194.936 149.175,194.931 134.082 L 194.922 106.641 194.043 106.688 C 193.560 106.714,192.109 106.888,190.820 107.074 M279.883 192.414 C 266.700 203.438,210.946 212.460,179.492 208.660 C 148.445 204.909,127.639 199.499,119.661 193.102 C 116.445 190.524,115.530 191.715,115.471 198.553 C 115.401 206.602,117.355 208.623,130.324 213.915 C 147.354 220.866,170.075 225.789,190.430 226.938 C 203.566 227.680,227.185 225.789,236.914 223.218 C 238.203 222.877,240.998 222.263,243.124 221.854 C 255.549 219.460,277.420 210.809,281.377 206.723 C 283.906 204.112,284.676 195.096,282.582 192.608 C 281.374 191.172,281.368 191.172,279.883 192.414 " stroke="none" fill="#e1e2e2" fill-rule="evenodd"></path><path id="path2" d="M184.532 122.266 C 184.532 125.596,184.592 126.958,184.665 125.293 C 184.739 123.628,184.739 120.903,184.665 119.238 C 184.592 117.573,184.532 118.936,184.532 122.266 M222.435 126.367 C 222.435 131.738,222.490 133.990,222.557 131.370 C 222.625 128.751,222.625 124.357,222.558 121.605 C 222.490 118.853,222.435 120.996,222.435 126.367 M175.940 142.188 C 175.940 145.732,175.999 147.183,176.072 145.410 C 176.144 143.638,176.144 140.737,176.072 138.965 C 175.999 137.192,175.940 138.643,175.940 142.188 M222.364 140.820 C 222.368 141.680,222.448 141.985,222.542 141.499 C 222.635 141.013,222.632 140.310,222.534 139.937 C 222.436 139.563,222.360 139.961,222.364 140.820 M195.091 152.539 C 195.091 157.910,195.146 160.162,195.213 157.542 C 195.281 154.923,195.281 150.528,195.214 147.777 C 195.147 145.025,195.091 147.168,195.091 152.539 M203.224 161.523 C 203.228 162.383,203.308 162.688,203.401 162.202 C 203.495 161.717,203.491 161.013,203.393 160.640 C 203.296 160.267,203.219 160.664,203.224 161.523 M213.372 176.953 C 213.372 177.705,213.452 178.013,213.551 177.637 C 213.649 177.261,213.649 176.646,213.551 176.270 C 213.452 175.894,213.372 176.201,213.372 176.953 M201.475 200.677 C 202.394 200.760,203.800 200.759,204.600 200.675 C 205.400 200.591,204.648 200.523,202.930 200.525 C 201.211 200.526,200.556 200.595,201.475 200.677 M188.191 209.267 C 188.893 209.354,189.947 209.353,190.534 209.263 C 191.121 209.174,190.547 209.103,189.258 209.105 C 187.969 209.108,187.488 209.181,188.191 209.267 M201.660 227.233 C 202.251 227.322,203.218 227.322,203.809 227.233 C 204.399 227.143,203.916 227.070,202.734 227.070 C 201.553 227.070,201.069 227.143,201.660 227.233 " stroke="none" fill="#8b9197" fill-rule="evenodd"></path><path id="path3" d="M195.089 116.211 C 195.090 121.152,195.146 123.120,195.214 120.583 C 195.282 118.047,195.282 114.004,195.213 111.599 C 195.145 109.194,195.089 111.270,195.089 116.211 M202.841 115.625 C 202.841 116.592,202.917 116.987,203.010 116.504 C 203.103 116.021,203.103 115.229,203.010 114.746 C 202.917 114.263,202.841 114.658,202.841 115.625 M202.859 127.344 C 202.859 128.740,202.930 129.312,203.017 128.613 C 203.104 127.915,203.104 126.772,203.017 126.074 C 202.930 125.376,202.859 125.947,202.859 127.344 M142.364 127.441 L 140.820 129.102 142.480 127.557 C 144.024 126.121,144.320 125.781,144.025 125.781 C 143.961 125.781,143.214 126.528,142.364 127.441 M195.071 131.445 C 195.072 134.023,195.135 135.027,195.211 133.676 C 195.288 132.325,195.287 130.216,195.210 128.989 C 195.133 127.762,195.070 128.867,195.071 131.445 M175.922 130.859 C 175.922 132.900,175.988 133.735,176.068 132.715 C 176.149 131.694,176.149 130.024,176.068 129.004 C 175.988 127.983,175.922 128.818,175.922 130.859 M184.487 131.055 C 184.490 132.129,184.566 132.522,184.655 131.928 C 184.745 131.334,184.743 130.456,184.650 129.975 C 184.557 129.495,184.484 129.980,184.487 131.055 M144.311 137.207 L 143.164 138.477 144.434 137.329 C 145.617 136.260,145.883 135.938,145.581 135.938 C 145.514 135.938,144.942 136.509,144.311 137.207 M184.526 140.625 C 184.526 143.311,184.588 144.409,184.664 143.066 C 184.740 141.724,184.740 139.526,184.664 138.184 C 184.588 136.841,184.526 137.939,184.526 140.625 M202.859 139.063 C 202.859 140.459,202.930 141.030,203.017 140.332 C 203.104 139.634,203.104 138.491,203.017 137.793 C 202.930 137.095,202.859 137.666,202.859 139.063 M202.859 149.219 C 202.859 150.615,202.930 151.187,203.017 150.488 C 203.104 149.790,203.104 148.647,203.017 147.949 C 202.930 147.251,202.859 147.822,202.859 149.219 M160.288 189.453 C 160.288 191.064,160.357 191.724,160.441 190.918 C 160.525 190.112,160.525 188.794,160.441 187.988 C 160.357 187.183,160.288 187.842,160.288 189.453 M237.643 193.945 C 237.644 196.094,237.709 196.923,237.788 195.788 C 237.868 194.653,237.867 192.895,237.787 191.881 C 237.706 190.868,237.642 191.797,237.643 193.945 M246.205 193.164 C 246.208 194.238,246.284 194.631,246.374 194.038 C 246.464 193.444,246.461 192.565,246.369 192.084 C 246.276 191.604,246.203 192.090,246.205 193.164 M160.247 194.922 C 160.247 195.674,160.327 195.981,160.426 195.605 C 160.524 195.229,160.524 194.614,160.426 194.238 C 160.327 193.862,160.247 194.170,160.247 194.922 " stroke="none" fill="#646c71" fill-rule="evenodd"></path><path id="path4" d="M195.063 139.453 C 195.063 141.494,195.129 142.329,195.209 141.309 C 195.289 140.288,195.289 138.618,195.209 137.598 C 195.129 136.577,195.063 137.412,195.063 139.453 " stroke="none" fill="#6c6c74" fill-rule="evenodd"></path></g></svg>