<?xml version="1.0" standalone="no"?>
<!DOCTYPE svg PUBLIC "-//W3C//DTD SVG 20010904//EN"
 "http://www.w3.org/TR/2001/REC-SVG-20010904/DTD/svg10.dtd">
<svg version="1.0" xmlns="http://www.w3.org/2000/svg"
 width="1022.000000pt" height="678.000000pt" viewBox="0 0 1022.000000 678.000000"
 preserveAspectRatio="xMidYMid meet">
<metadata>
Created by potrace 1.16, written by Peter Selinger 2001-2019
</metadata>
<g transform="translate(0.000000,678.000000) scale(0.100000,-0.100000)"
fill="#000000" stroke="none">
<path d="M4165 5851 c-71 -37 -202 -105 -290 -151 -88 -45 -225 -118 -305
-161 -80 -42 -247 -127 -370 -187 -124 -61 -391 -196 -595 -300 -399 -204
-404 -207 -388 -274 7 -29 18 -38 88 -71 44 -21 123 -63 175 -92 52 -29 179
-96 282 -148 l187 -96 -112 -67 c-62 -37 -175 -108 -252 -157 -77 -49 -205
-130 -285 -179 -80 -50 -151 -97 -158 -106 -19 -25 -15 -106 6 -125 10 -9 85
-48 168 -88 135 -64 298 -145 562 -280 51 -26 100 -53 108 -60 12 -10 14 -119
15 -718 l0 -706 357 -177 c404 -201 723 -364 957 -490 88 -47 225 -118 303
-157 79 -40 185 -95 235 -123 136 -75 243 -128 260 -128 9 0 31 9 49 20 22 12
46 18 66 15 18 -2 30 0 27 5 -3 5 -13 6 -22 3 -11 -5 -14 -3 -9 6 5 7 17 11
27 8 11 -3 17 -1 14 3 -3 5 0 12 7 16 21 13 50 12 55 -2 2 -7 11 -10 19 -7 18
7 18 -4 0 -23 -17 -16 -30 -19 -21 -4 3 5 1 10 -5 10 -7 0 -10 -6 -7 -12 2 -7
-3 -19 -12 -26 -14 -11 -13 -12 6 -3 16 8 25 7 36 -4 8 -8 17 -11 21 -8 9 9 7
23 -3 20 -5 -1 -9 3 -9 8 -1 6 6 9 14 9 8 -1 14 5 14 14 0 12 6 10 28 -9 15
-13 24 -20 20 -15 -5 5 1 16 13 24 23 16 39 8 21 -10 -18 -18 -15 -33 3 -18 9
7 19 10 23 6 4 -4 -2 -14 -12 -22 -15 -10 -16 -14 -5 -14 8 0 20 5 27 12 9 9
15 8 26 -8 8 -10 17 -16 21 -12 4 4 -3 15 -15 25 -53 43 -54 46 -30 55 26 10
41 1 21 -11 -7 -5 -9 -11 -4 -14 5 -3 16 2 24 11 17 20 23 66 8 56 -6 -3 -8
-12 -5 -20 5 -14 -5 -19 -17 -8 -11 11 16 55 31 49 10 -3 12 0 8 10 -3 8 0 15
6 15 6 0 17 8 24 17 7 10 15 15 19 12 3 -4 0 -13 -7 -21 -14 -15 -38 -55 -38
-63 0 -3 5 -5 10 -5 6 0 10 7 10 15 0 21 9 19 30 -5 10 -12 21 -17 24 -12 3 4
-4 15 -15 22 -22 16 -26 35 -5 27 8 -3 18 5 25 19 10 23 13 24 27 10 14 -15
13 -20 -7 -61 -12 -24 -26 -42 -30 -39 -4 2 -11 -1 -14 -7 -5 -7 0 -10 11 -7
10 2 25 17 33 33 l15 30 7 -25 c7 -24 7 -24 8 -2 1 12 6 22 12 22 7 0 9 -10 5
-25 -4 -14 -2 -25 4 -25 5 0 9 6 7 13 -1 6 6 11 16 11 23 -2 22 13 -3 21 -11
3 -20 10 -20 15 0 5 -7 7 -15 4 -8 -4 -15 -1 -15 5 0 6 7 11 15 11 17 0 96
-47 107 -64 5 -6 8 -1 8 12 0 31 21 28 51 -10 25 -29 28 -31 43 -16 9 9 16 20
16 24 0 5 -5 3 -12 -4 -17 -17 -38 -15 -38 3 0 8 -4 15 -10 15 -5 0 -10 6 -10
14 0 9 7 12 20 9 11 -3 17 -9 14 -14 -10 -17 5 -9 31 16 29 30 31 35 10 35 -9
0 -12 6 -9 15 4 9 1 15 -7 15 -8 0 -1 11 15 23 18 15 25 26 18 31 -6 3 -14 0
-19 -8 -7 -12 -10 -12 -21 0 -11 12 -10 14 3 14 8 0 15 5 15 11 0 6 -7 9 -15
6 -8 -4 -17 -2 -21 4 -3 5 -14 7 -25 4 -23 -8 -26 10 -3 19 9 4 14 13 10 21
-3 8 -1 15 5 15 6 0 9 -8 7 -17 -1 -10 2 -19 7 -21 6 -1 11 9 13 23 2 17 -1
25 -12 25 -9 0 -16 8 -17 18 0 13 -3 12 -11 -5 -6 -13 -17 -23 -25 -23 -10 0
-14 -10 -13 -27 3 -47 0 -64 -10 -58 -5 3 -7 12 -3 20 3 8 -1 15 -8 15 -7 0
-9 -3 -6 -7 4 -3 1 -16 -7 -28 -12 -18 -11 -24 5 -44 17 -20 20 -21 34 -8 22
22 19 28 -10 21 -15 -4 -25 -2 -25 5 0 6 7 11 15 11 9 0 18 6 21 14 7 17 54
16 54 -2 0 -9 -7 -11 -20 -7 -11 3 -20 2 -20 -3 0 -6 6 -12 12 -14 9 -3 8 -9
-5 -22 -9 -10 -17 -22 -17 -27 0 -6 -5 -7 -10 -4 -6 3 -13 -1 -16 -9 -9 -23
-26 -19 -19 4 4 11 2 20 -4 20 -6 0 -11 7 -11 15 0 18 -37 20 -42 3 -6 -17
-38 14 -38 36 0 18 -16 30 -24 17 -4 -5 -2 -13 4 -16 6 -4 8 -16 4 -27 -4 -14
-2 -18 5 -14 6 4 14 0 17 -8 3 -8 21 -21 40 -28 35 -12 46 -28 19 -28 -8 0
-15 5 -15 10 0 6 -9 10 -20 10 -11 0 -20 4 -20 8 0 5 -11 14 -24 21 -15 9 -22
19 -19 31 3 10 0 21 -6 24 -6 4 -11 1 -12 -6 -1 -32 -8 -71 -13 -76 -13 -12
-17 8 -6 29 11 19 10 21 -4 16 -9 -4 -16 -2 -16 3 0 6 7 10 16 10 11 0 14 6 9
20 -5 16 -2 20 15 20 12 0 19 3 17 8 -3 4 -1 16 4 27 6 17 8 17 8 3 1 -19 17
-25 23 -8 2 6 13 2 26 -10 22 -20 22 -20 22 -1 0 11 4 22 9 25 4 3 6 18 3 32
-3 19 -1 25 7 20 6 -4 11 -2 11 4 0 6 5 8 12 4 7 -5 5 -11 -8 -21 -17 -12 -17
-14 -1 -30 9 -9 20 -13 24 -9 4 4 2 11 -6 15 -9 6 -7 10 8 14 12 3 21 10 21
17 0 6 -4 9 -9 6 -5 -3 -11 1 -14 9 -4 9 -1 12 9 8 7 -3 14 0 14 6 0 6 5 11
11 11 8 0 8 -5 -1 -15 -10 -12 -10 -15 4 -15 9 0 16 7 16 15 0 9 7 18 15 21 8
4 12 11 8 17 -4 6 0 8 10 4 9 -3 18 -1 20 6 7 21 16 2 10 -22 -3 -13 -11 -20
-19 -17 -16 6 -19 -10 -4 -19 15 -9 40 14 33 31 -3 8 0 14 6 14 16 0 14 -26
-4 -44 -8 -8 -15 -25 -14 -38 l0 -23 12 25 c6 14 14 27 17 30 12 12 10 43 -5
66 -11 17 -12 23 -3 22 7 -2 20 -14 29 -28 10 -16 27 -26 44 -28 15 -1 35 -8
43 -15 13 -10 15 -9 9 11 -4 18 -2 22 9 18 8 -3 14 1 14 10 0 9 -5 12 -12 8
-8 -5 -9 -2 -5 9 3 9 2 19 -3 22 -4 3 -10 -1 -13 -7 -2 -7 -8 -9 -13 -5 -16
16 20 27 37 11 9 -8 24 -12 33 -8 9 3 16 1 16 -5 0 -6 -7 -11 -16 -11 -8 0
-12 -5 -9 -10 5 -8 11 -8 19 -1 7 6 16 8 19 4 4 -3 7 1 7 10 0 9 -4 19 -10 22
-13 8 -13 25 1 25 5 0 7 -4 4 -10 -3 -5 1 -10 10 -10 11 0 15 5 12 14 -4 10
-1 13 7 10 7 -3 16 2 19 10 9 23 26 20 37 -6 6 -16 9 -18 9 -6 1 9 7 19 14 21
7 4 6 6 -4 6 -19 1 -33 28 -18 36 5 4 12 -1 15 -9 3 -9 12 -16 19 -16 7 0 23
-9 36 -21 17 -15 19 -19 7 -15 -14 4 -18 0 -18 -17 0 -20 2 -20 31 11 16 17
27 37 23 43 -4 8 -9 7 -15 -2 -4 -7 -11 -10 -16 -6 -4 5 -1 12 6 17 8 4 11 15
8 24 -8 21 -25 21 -23 0 0 -9 -4 -19 -10 -21 -6 -2 -10 6 -9 19 1 13 -5 31
-13 41 -19 22 -5 22 20 0 23 -21 36 -10 14 12 -24 24 -20 31 5 9 21 -19 22
-19 15 3 -6 19 -2 25 19 33 35 13 48 4 34 -22 -8 -14 -8 -23 0 -31 18 -18 13
-31 -6 -16 -15 12 -16 12 -10 -3 4 -11 0 -21 -11 -27 -10 -6 -12 -11 -4 -11 6
0 12 -7 12 -15 0 -8 5 -15 11 -15 6 0 8 8 4 19 -7 24 16 31 64 18 35 -9 51 1
51 33 -1 11 -4 10 -15 -4 -16 -21 -21 -10 -6 13 5 7 14 11 20 7 6 -4 20 7 32
26 18 29 20 30 15 8 -3 -14 -6 -28 -6 -32 0 -5 -7 -8 -15 -8 -8 0 -15 -5 -15
-11 0 -6 8 -8 19 -4 10 3 24 -1 31 -10 11 -14 14 -13 25 7 8 16 8 27 2 36 -7
9 -6 17 1 24 15 15 15 28 2 28 -5 0 -10 -7 -10 -15 0 -8 -4 -15 -10 -15 -14 0
-13 13 2 28 6 6 8 15 4 19 -4 4 -10 3 -14 -3 -4 -6 -15 -13 -24 -17 -10 -3
-18 -13 -18 -22 0 -8 -5 -15 -11 -15 -7 0 -8 7 -4 18 17 42 18 52 1 46 -9 -3
-16 -2 -16 4 0 6 -3 19 -7 29 -7 17 -6 17 11 0 12 -12 25 -15 39 -11 19 6 20
5 9 -9 -9 -10 -10 -17 -2 -22 5 -3 10 1 10 9 0 13 5 14 26 5 15 -5 30 -7 33
-3 3 4 0 9 -7 11 -6 3 -9 9 -6 15 4 6 10 5 15 -3 4 -7 11 -10 16 -5 4 4 1 12
-8 16 -11 6 -15 18 -12 35 3 13 9 22 14 20 4 -3 6 -12 2 -20 -3 -8 0 -15 6
-15 6 0 11 7 11 15 0 8 5 15 10 15 13 0 13 -6 0 -31 -16 -29 2 -23 38 12 18
17 32 28 32 24 0 -4 6 -2 14 4 15 13 49 4 40 -10 -3 -5 2 -9 10 -9 9 0 16 -5
16 -11 0 -6 -6 -9 -14 -6 -8 3 -17 -1 -20 -10 -4 -9 -13 -13 -22 -9 -12 4 -15
2 -10 -9 3 -9 0 -15 -9 -15 -8 0 -15 -4 -15 -10 0 -5 -7 -10 -15 -10 -20 0
-19 16 1 24 8 3 12 10 9 16 -10 16 -25 12 -25 -6 0 -11 -6 -15 -20 -11 -11 3
-20 1 -20 -5 0 -5 9 -12 20 -15 11 -3 20 -10 20 -15 0 -6 -8 -7 -17 -3 -32 13
-47 10 -50 -10 -3 -18 -3 -18 7 -3 10 17 12 17 33 -3 19 -17 23 -18 25 -5 2 9
8 16 13 16 6 0 17 6 24 12 35 31 45 38 45 31 0 -4 4 -1 10 7 5 8 12 11 17 6 4
-4 0 -12 -10 -18 -17 -9 -17 -11 4 -29 12 -10 19 -22 15 -26 -4 -4 -11 -1 -16
7 -5 8 -12 11 -16 7 -4 -4 -1 -14 8 -23 14 -14 18 -12 44 15 33 35 46 38 64
15 11 -12 10 -18 -3 -31 -20 -20 -35 -10 -17 12 10 12 10 15 -4 15 -9 0 -16
-5 -16 -11 0 -6 -7 -17 -15 -25 -8 -9 -15 -13 -15 -9 0 3 -14 -4 -31 -16 -27
-19 -35 -20 -52 -9 -18 11 -23 9 -38 -11 -21 -27 -24 -39 -9 -39 6 0 10 6 10
14 0 15 18 31 25 24 2 -2 -2 -16 -10 -31 -8 -15 -10 -27 -5 -27 5 0 12 11 16
25 7 29 24 34 24 7 0 -10 5 -23 11 -29 8 -8 6 -19 -7 -39 l-18 -29 26 24 c25
22 28 51 6 51 -5 0 -6 10 -2 23 9 30 12 33 27 18 9 -11 9 -14 0 -18 -9 -3 -8
-12 5 -31 19 -31 45 -53 52 -45 3 2 -3 9 -13 15 -28 15 -37 50 -18 65 15 11
14 12 -1 13 -21 0 -13 30 8 30 8 0 14 5 14 11 0 6 6 9 13 6 6 -2 11 -10 9 -16
-1 -7 11 -2 28 10 28 21 31 21 48 6 10 -9 28 -17 40 -17 12 0 22 -4 22 -10 0
-5 7 -10 16 -10 11 0 14 -6 9 -20 -4 -11 -2 -20 4 -20 6 0 11 14 11 30 0 23 5
30 19 30 11 0 21 6 24 13 3 9 8 9 21 -2 9 -8 19 -12 21 -9 8 7 -16 25 -45 32
-17 5 -21 4 -12 -2 11 -7 11 -10 -3 -15 -9 -4 -18 -1 -22 8 -6 17 -32 16 -51
-2 -16 -16 -29 -16 -37 -2 -4 6 2 13 14 16 12 3 21 10 21 15 0 6 -7 8 -15 4
-8 -3 -15 0 -15 7 0 7 9 13 20 14 12 1 20 -4 20 -13 0 -8 5 -12 10 -9 7 4 7
11 2 18 -21 27 -21 61 0 90 19 27 20 30 4 24 -10 -4 -20 -7 -22 -7 -2 0 -4 -7
-4 -15 0 -8 -8 -15 -17 -16 -11 0 -13 -3 -5 -6 6 -2 12 -9 12 -15 0 -6 -7 -8
-15 -4 -8 3 -15 1 -15 -4 0 -5 -8 -7 -17 -4 -17 5 -17 5 0 -6 9 -6 27 -8 40
-5 21 6 21 6 3 -9 -11 -9 -29 -16 -40 -16 -20 -1 -20 -2 -3 -14 16 -12 24 -36
12 -36 -3 0 -15 10 -27 22 -20 20 -20 22 -3 35 16 11 16 13 3 13 -9 0 -18 -5
-20 -12 -2 -6 -10 -8 -16 -4 -17 10 -15 26 3 26 8 0 15 4 15 9 0 5 9 12 19 16
11 3 32 18 48 33 41 41 79 55 97 37 8 -8 24 -15 34 -15 11 0 23 -6 26 -12 3
-7 3 1 0 19 -6 34 5 47 30 37 23 -9 20 -26 -4 -19 -11 3 -20 2 -20 -3 0 -5 10
-12 23 -16 l22 -6 -25 -17 c-14 -10 -29 -18 -34 -18 -5 0 -11 -6 -14 -14 -3
-8 0 -11 6 -7 16 10 41 -4 35 -20 -3 -8 0 -14 6 -14 6 0 11 4 11 10 0 5 7 7
15 4 8 -4 15 -14 15 -23 0 -13 2 -14 9 -1 6 8 7 18 5 22 -3 4 2 8 10 8 9 0 16
5 16 10 0 13 -13 13 -28 -2 -9 -9 -18 -9 -37 0 -27 13 -34 32 -10 32 8 0 15
-4 15 -10 0 -5 7 -10 15 -10 8 0 15 5 15 10 0 19 39 10 45 -11 4 -11 9 -18 11
-16 10 10 -19 55 -32 50 -8 -3 -16 2 -20 10 -3 9 -12 13 -20 10 -20 -8 -17 7
6 27 19 16 19 19 5 33 -15 16 -20 37 -9 37 4 0 12 -7 18 -16 14 -19 50 -8 41
13 -4 12 0 14 15 10 23 -6 25 -2 8 17 -11 11 -15 11 -26 -3 -12 -14 -12 -14
-7 5 3 14 0 24 -8 27 -8 3 -14 0 -14 -6 1 -39 -3 -51 -15 -39 -9 9 -14 7 -24
-6 -10 -14 -10 -20 3 -35 9 -9 13 -20 9 -25 -4 -4 -14 1 -21 12 -8 10 -18 15
-24 12 -5 -4 -14 2 -20 11 -5 10 -13 14 -18 9 -4 -5 -2 -11 5 -13 14 -5 16
-33 2 -33 -5 0 -10 4 -10 9 0 18 -33 21 -46 4 -11 -15 -15 -16 -23 -4 -5 8
-16 11 -25 8 -10 -4 -16 -1 -16 7 0 8 -6 16 -12 19 -8 2 -1 10 15 17 15 7 27
19 27 25 0 16 38 50 46 42 4 -4 0 -9 -9 -13 -9 -3 -19 -19 -22 -35 -4 -16 -13
-29 -21 -29 -8 0 -14 -5 -14 -11 0 -6 7 -8 17 -5 9 4 20 1 26 -6 6 -9 7 -4 3
13 -4 19 1 34 20 55 20 23 25 25 20 9 -3 -11 -2 -26 3 -33 10 -17 41 -5 41 17
0 9 5 23 10 31 8 12 12 11 30 -8 11 -12 22 -22 24 -22 8 0 -2 68 -12 88 -7 12
-10 27 -6 34 7 11 7 94 0 153 -4 30 8 63 28 78 6 5 0 5 -12 2 -21 -6 -23 -5
-13 13 7 13 7 22 0 29 -8 8 -8 26 -1 57 5 26 6 48 2 51 -5 3 -9 193 -9 423 -1
229 -4 467 -7 528 l-7 111 109 60 c60 33 241 127 402 207 160 81 305 158 321
172 34 29 51 99 33 139 -7 14 -51 47 -109 81 -54 31 -154 91 -223 134 -202
124 -239 147 -363 222 l-118 71 218 112 c120 61 241 125 268 141 28 17 92 52
142 78 84 43 94 52 104 85 8 26 8 44 1 57 -6 10 -52 41 -104 69 -51 27 -129
69 -173 92 -44 24 -168 86 -275 139 -439 217 -513 255 -705 356 -110 59 -294
156 -410 216 -115 61 -241 128 -280 149 -114 62 -109 62 -211 3 -49 -28 -172
-92 -274 -142 -102 -49 -227 -115 -279 -146 -93 -55 -94 -55 -138 -44 -24 7
-123 54 -221 106 -320 168 -532 276 -545 276 -6 0 -70 -31 -142 -69z m1726
-117 c10 -9 89 -53 176 -98 87 -46 304 -158 483 -251 179 -93 404 -207 500
-254 96 -46 222 -110 280 -141 58 -31 162 -83 232 -114 70 -32 125 -62 123
-67 -15 -23 -629 -342 -659 -341 -12 0 -106 46 -211 102 -104 57 -354 188
-555 292 -200 104 -369 193 -375 197 -5 5 -110 61 -232 125 -122 64 -261 139
-308 166 -48 28 -91 50 -96 50 -20 0 -7 28 19 39 15 7 58 31 96 54 87 53 476
254 495 256 8 0 23 -6 32 -15z m-1456 -56 c168 -81 498 -248 508 -258 8 -7
-130 -84 -370 -206 -68 -34 -129 -66 -135 -72 -7 -5 -274 -141 -593 -302 -319
-161 -610 -310 -647 -331 -36 -22 -74 -39 -83 -39 -10 0 -43 15 -74 34 -31 19
-114 62 -184 96 -103 50 -247 128 -366 198 -16 9 -7 32 13 32 8 0 83 36 167
81 85 45 350 180 589 301 239 122 449 229 467 240 76 45 549 288 563 288 8 0
74 -28 145 -62z m805 -700 c96 -44 194 -121 238 -188 86 -129 117 -263 109
-489 -5 -176 -25 -267 -82 -386 -100 -209 -353 -309 -577 -229 -98 35 -143 63
-205 126 -58 59 -93 127 -124 244 -19 68 -22 109 -23 289 -1 191 1 218 22 295
13 46 35 109 50 138 48 98 182 196 303 222 24 5 87 8 139 6 76 -3 106 -8 150
-28z m-1986 -756 c276 -156 575 -312 971 -508 231 -113 472 -237 535 -274 63
-37 141 -80 173 -96 31 -15 57 -32 57 -36 0 -7 -119 -87 -280 -188 -47 -29
-164 -105 -260 -168 -96 -63 -182 -117 -191 -119 -17 -5 -135 52 -288 136
-425 236 -1534 814 -1587 827 -13 3 -24 12 -24 19 0 7 44 38 98 70 53 31 138
83 187 115 269 172 461 290 473 290 8 0 69 -31 136 -68z m3824 29 c83 -42 711
-431 712 -442 0 -3 -32 -21 -72 -40 -218 -104 -922 -468 -1128 -584 -41 -23
-131 -71 -200 -105 -69 -35 -153 -81 -187 -102 -34 -20 -91 -52 -125 -69 -35
-17 -82 -45 -106 -61 l-43 -29 -82 54 c-45 30 -181 118 -302 194 -292 186
-383 247 -384 255 -1 4 23 20 51 34 29 15 107 59 173 99 66 39 307 165 535
279 228 115 483 243 565 286 360 187 501 258 518 259 10 0 43 -12 75 -28z
m-3799 -1087 c154 -82 295 -160 383 -212 l77 -45 7 -56 c4 -31 4 -166 1 -301
l-6 -246 52 -12 c64 -15 94 -15 102 -2 11 18 62 10 101 -16 21 -14 67 -51 103
-82 66 -56 177 -132 192 -132 5 0 8 98 7 218 -1 150 2 240 12 291 13 68 18 78
64 125 65 67 130 112 421 296 143 91 242 147 247 142 9 -9 12 -2101 3 -2110
-2 -2 -131 63 -287 146 -156 82 -344 180 -418 217 -74 37 -211 108 -305 158
-206 110 -573 298 -750 385 l-130 64 1 591 c2 655 1 637 10 637 4 0 55 -25
113 -56z m3117 -335 c6 -19 17 -115 23 -214 6 -99 14 -207 17 -240 l6 -60 -62
-12 c-41 -8 -90 -28 -144 -59 -44 -26 -126 -72 -181 -102 -55 -30 -112 -63
-127 -74 l-28 -19 0 28 c0 15 -3 64 -6 108 l-6 80 48 17 c27 10 83 37 124 62
41 25 108 63 147 86 109 63 109 62 117 247 6 123 11 162 24 176 21 24 35 17
48 -24z"/>
<path d="M4968 4745 c-63 -33 -105 -87 -131 -170 -33 -103 -32 -331 2 -464 34
-132 98 -210 188 -227 60 -11 160 23 207 70 74 74 113 239 102 431 -10 193
-50 292 -140 353 -43 28 -56 32 -115 32 -50 -1 -77 -7 -113 -25z"/>
<path d="M7472 2674 c-56 -39 -60 -95 -8 -129 38 -25 126 0 144 41 30 65 -73
132 -136 88z"/>
<path d="M2598 2655 c-53 -36 -58 -62 -19 -97 40 -36 80 -36 120 -2 38 32 40
63 5 98 -33 33 -59 33 -106 1z"/>
<path d="M7841 2540 c-69 -17 -92 -93 -40 -132 22 -17 35 -19 83 -13 32 4 67
16 82 28 23 18 26 26 21 64 -2 24 -7 47 -11 50 -10 10 -99 12 -135 3z"/>
<path d="M2195 2521 c-32 -7 -55 -40 -55 -83 0 -53 56 -76 153 -64 66 9 87 28
87 77 0 68 -70 95 -185 70z"/>
<path d="M2706 1603 c-35 -6 -126 -93 -126 -122 0 -27 53 -54 88 -46 15 3 45
18 67 33 34 24 40 34 43 69 3 38 -16 76 -36 72 -4 -1 -20 -4 -36 -6z"/>
<path d="M2263 1575 c-54 -33 -70 -74 -42 -110 30 -37 72 -34 116 10 30 30 34
39 28 67 -7 33 -29 58 -49 58 -6 0 -30 -11 -53 -25z"/>
<path d="M2493 1424 c-51 -23 -53 -25 -53 -64 0 -31 6 -47 26 -65 15 -14 31
-25 35 -25 17 0 89 73 95 96 6 25 -23 85 -41 83 -5 0 -34 -11 -62 -25z"/>
<path d="M2924 1419 c-37 -11 -124 -96 -124 -122 0 -18 42 -67 57 -67 4 0 35
15 68 34 46 25 65 43 83 78 23 44 23 47 6 67 -20 22 -40 25 -90 10z"/>
<path d="M6395 1340 c-3 -5 -4 -14 0 -19 5 -9 -12 -25 -25 -26 -12 0 -48 -45
-40 -50 5 -3 14 4 21 16 10 20 12 21 21 5 5 -10 8 -18 6 -19 -29 -16 -42 -27
-40 -37 4 -16 -30 -8 -36 9 -3 8 0 11 7 7 6 -4 11 -2 11 4 0 7 -7 10 -15 7 -8
-4 -17 -2 -20 4 -4 5 -11 6 -17 3 -7 -5 -5 -12 7 -20 10 -8 15 -17 10 -21 -4
-5 -10 -2 -12 5 -5 13 -23 17 -23 5 0 -15 61 -73 71 -68 14 10 11 25 -5 19
-17 -6 -30 11 -20 27 5 8 9 8 14 -1 5 -7 16 -9 29 -5 18 5 20 9 10 21 -9 11
-8 14 8 14 10 0 25 -6 32 -12 11 -10 14 -10 18 0 7 17 23 15 23 -4 0 -8 4 -13
9 -9 5 3 11 -3 13 -12 2 -10 -5 -22 -17 -28 -11 -6 -20 -15 -21 -20 -2 -22
-17 -45 -30 -45 -20 0 -17 17 4 29 10 6 12 11 4 11 -17 0 -62 -45 -62 -62 1
-8 5 -7 14 5 14 18 46 14 46 -7 0 -6 9 4 20 22 11 18 18 37 15 42 -8 13 18 18
36 7 10 -6 22 -6 34 0 12 7 14 13 6 17 -6 4 -11 2 -11 -3 0 -6 -7 -11 -15 -11
-23 0 -18 19 8 30 l22 9 -22 0 c-13 1 -24 9 -28 21 -3 11 -11 20 -16 20 -5 0
-9 7 -9 15 0 8 -5 15 -11 15 -7 0 -9 10 -5 26 5 17 3 23 -4 19 -5 -3 -10 -1
-10 4 0 6 9 11 20 11 12 0 20 7 20 17 0 13 -3 14 -12 5 -17 -17 -31 -15 -24 3
6 17 0 20 -9 5z"/>
<path d="M3228 1304 c-40 -30 -48 -41 -48 -68 0 -31 33 -76 55 -76 5 0 37 19
72 41 70 46 78 67 42 113 -28 36 -64 33 -121 -10z"/>
<path d="M3494 1141 c-57 -26 -104 -69 -104 -96 0 -25 45 -75 68 -75 17 0 96
44 125 68 20 18 22 47 4 81 -18 35 -47 42 -93 22z"/>
</g>
</svg>
