<?xml version="1.0" standalone="no"?>
<!DOCTYPE svg PUBLIC "-//W3C//DTD SVG 20010904//EN"
 "http://www.w3.org/TR/2001/REC-SVG-20010904/DTD/svg10.dtd">
<svg version="1.0" xmlns="http://www.w3.org/2000/svg"
 width="1024.000000pt" height="1024.000000pt" viewBox="0 0 1024.000000 1024.000000"
 preserveAspectRatio="xMidYMid meet">

<g transform="translate(0.000000,1024.000000) scale(0.100000,-0.100000)"
fill="#000000" stroke="none">
<path d="M6130 9296 c-19 -6 -40 -22 -48 -36 -17 -33 -9 -98 16 -123 26 -25
95 -28 118 -5 17 17 26 78 12 78 -5 0 -8 -5 -8 -12 0 -7 -10 -3 -21 9 -15 15
-19 27 -14 40 21 49 1 68 -55 49z"/>
<path d="M6815 9247 c-109 -36 -140 -70 -466 -497 -53 -69 -156 -203 -230
-298 -239 -308 -259 -342 -259 -446 0 -41 -3 -47 -17 -42 -9 4 -55 17 -102 30
-394 109 -781 114 -1169 15 -652 -167 -1244 -684 -1492 -1304 -46 -114 -97
-292 -123 -425 -19 -101 -22 -148 -22 -390 1 -241 3 -291 23 -400 12 -69 25
-133 28 -142 3 -12 -6 -24 -33 -41 -50 -31 -844 -494 -1135 -661 -230 -132
-285 -172 -315 -230 -22 -40 -30 -241 -13 -306 18 -67 23 -72 605 -525 77 -60
196 -151 265 -204 217 -165 216 -163 229 -234 120 -629 513 -1216 1071 -1600
362 -248 720 -389 1155 -453 166 -25 532 -25 700 0 506 74 908 244 1285 543
47 37 148 130 226 208 330 329 562 731 669 1155 18 74 36 154 40 176 l6 41
212 119 c117 64 271 150 342 189 397 220 461 261 492 317 15 27 18 58 18 179
0 142 -1 146 -28 187 -28 43 -284 239 -877 672 -146 106 -335 245 -420 309
-85 64 -158 119 -163 122 -6 4 -3 38 6 80 33 155 41 239 41 459 1 174 -3 250
-17 335 -41 241 -111 457 -222 680 -110 223 -226 386 -404 568 -41 42 -73 77
-69 77 4 0 66 -25 138 -55 72 -31 213 -89 313 -130 368 -149 707 -288 902
-369 110 -46 288 -119 395 -162 192 -77 196 -78 285 -79 103 0 150 18 220 86
l40 38 65 -20 c90 -29 230 -29 321 0 129 41 238 135 297 255 44 90 54 157 47
294 -11 190 -41 278 -122 357 l-37 36 31 62 c43 85 47 119 28 223 -35 191 -56
211 -335 321 -63 24 -128 51 -145 59 -44 20 -1095 441 -1320 529 -60 23 -207
81 -325 128 -417 165 -428 169 -515 173 -49 2 -95 -1 -120 -9z m305 -75 c443
-174 782 -309 995 -394 138 -56 277 -111 310 -124 33 -12 116 -45 185 -73 69
-29 278 -113 465 -187 187 -75 356 -149 375 -164 19 -15 44 -48 54 -73 17 -40
17 -49 6 -78 -13 -31 -96 -159 -147 -225 l-23 -31 62 -31 c93 -46 149 -100
189 -179 32 -65 34 -73 34 -173 -1 -87 -5 -113 -23 -153 -49 -106 -150 -194
-279 -243 -67 -25 -111 -29 -303 -22 -44 1 -60 -2 -60 -13 0 -5 5 -7 12 -3 7
5 8 3 3 -6 -6 -10 -11 -9 -22 5 -15 22 -17 39 -4 30 5 -3 12 -1 16 5 3 5 2 10
-4 10 -5 0 -8 18 -7 41 3 39 2 40 -23 34 -14 -3 -34 -16 -43 -28 -10 -12 -22
-27 -28 -34 -5 -7 -10 -16 -10 -21 0 -22 -71 -80 -114 -92 -59 -16 -110 -8
-211 35 -44 19 -114 47 -155 63 -41 16 -124 50 -185 75 -251 103 -268 110
-920 374 -143 58 -393 159 -555 225 -162 65 -310 126 -328 134 -18 8 -106 43
-195 76 -189 70 -208 79 -242 115 -43 47 -35 79 48 185 276 353 410 527 585
758 82 108 130 162 164 184 92 60 222 59 378 -2z m-1728 -1148 c34 -8 85 -58
104 -103 22 -51 13 -139 -20 -195 -49 -83 -192 -164 -331 -186 -39 -6 -113
-11 -165 -10 -52 2 -108 3 -125 3 -16 0 -24 2 -16 5 9 3 3 9 -16 17 -20 9 -32
22 -35 39 -9 45 33 55 132 31 38 -9 68 26 51 58 -37 70 -150 75 -291 12 -113
-49 -166 -60 -196 -40 -38 25 -57 130 -33 178 7 12 28 44 48 70 30 40 45 51
96 66 66 21 211 46 340 61 80 9 407 5 457 -6z m480 -114 c87 -27 381 -173 447
-223 58 -43 55 -60 -6 -32 -37 18 -37 18 -60 -9 -61 -71 10 -206 108 -206 21
0 39 5 39 10 0 6 3 9 8 9 22 -4 32 5 46 44 8 23 17 53 18 66 3 23 9 20 93 -50
201 -168 375 -387 485 -609 17 -36 36 -73 41 -82 6 -13 5 -18 -3 -18 -10 0
-10 -2 0 -8 7 -5 10 -16 6 -25 -7 -20 -20 -22 -27 -4 -3 7 -6 5 -6 -5 -1 -17
-17 -22 -73 -21 -10 0 -18 -4 -18 -9 0 -5 -5 -6 -10 -3 -6 4 -9 1 -8 -5 2 -7
-17 -24 -42 -38 -25 -14 -47 -29 -49 -35 -2 -5 -7 -3 -12 4 -7 11 -9 11 -9 -1
0 -9 -22 -33 -50 -54 -27 -21 -48 -42 -45 -47 3 -4 -4 -13 -15 -19 -12 -6 -19
-18 -16 -25 3 -8 0 -12 -7 -9 -7 2 -23 -10 -37 -28 -53 -68 -112 -121 -120
-108 -4 7 -10 8 -13 3 -4 -6 -37 -11 -74 -12 -37 -1 -102 -11 -145 -22 l-76
-21 -21 21 c-12 12 -21 27 -22 34 0 10 -2 10 -6 0 -10 -25 -22 -12 -16 17 3
19 1 30 -6 30 -6 0 -11 7 -11 15 0 8 -15 29 -33 48 -42 42 -94 46 -198 17
-136 -37 -179 -25 -276 80 -54 59 -107 94 -129 86 -8 -3 -13 -2 -10 3 7 12
-71 23 -109 15 -16 -3 -53 -16 -81 -29 -56 -25 -68 -48 -60 -114 l5 -33 -57 4
c-41 3 -69 12 -99 32 -23 15 -50 29 -60 30 -10 2 -18 7 -18 12 -1 5 -9 25 -20
44 -21 40 -23 47 -31 112 -8 60 17 115 61 133 17 8 80 18 140 24 193 18 279
58 364 171 19 25 52 62 74 83 44 40 158 107 184 107 9 0 14 3 11 6 -3 3 16 26
43 51 70 65 87 123 72 243 -7 49 -15 95 -20 102 -4 7 -9 21 -10 31 -6 37 -72
163 -102 195 -17 18 -31 35 -31 38 0 9 41 3 102 -16z m-1642 -102 c0 -13 -7
-43 -16 -68 -9 -25 -17 -81 -18 -125 -1 -86 18 -142 67 -195 31 -34 44 -73 52
-155 7 -77 23 -109 86 -170 43 -41 159 -210 159 -231 0 -7 4 -14 9 -16 4 -1
20 -50 35 -108 15 -58 47 -147 72 -198 61 -126 128 -191 310 -302 179 -109
222 -125 344 -124 89 0 100 2 172 38 108 52 131 54 200 17 79 -42 128 -41 228
4 91 41 102 42 132 12 54 -54 94 -76 138 -78 48 -3 120 17 120 32 0 5 6 9 13
9 7 0 28 13 46 29 19 17 52 39 75 49 44 21 173 47 218 44 21 -1 26 3 21 14 -4
12 -1 15 13 12 22 -4 48 -49 33 -59 -5 -3 -19 -23 -30 -45 -12 -21 -31 -49
-42 -62 -20 -21 -22 -22 -28 -5 -7 17 -8 17 -8 1 -1 -10 -5 -18 -10 -18 -5 0
-7 -9 -4 -19 3 -11 -2 -30 -11 -43 -12 -17 -16 -18 -16 -6 0 9 -7 18 -15 21
-11 5 -12 1 -5 -19 13 -32 12 -37 0 -29 -5 3 -11 -4 -11 -17 -1 -17 -3 -18 -6
-5 -5 18 -29 22 -52 8 -7 -5 -11 -14 -7 -20 5 -7 -3 -9 -24 -5 -19 4 -30 2
-30 -5 0 -6 9 -11 20 -11 11 0 20 -4 20 -10 0 -5 -5 -10 -11 -10 -5 0 -7 -4
-4 -10 12 -20 -17 -10 -34 12 -17 20 -41 19 -41 -3 0 -6 5 -7 10 -4 6 3 10 1
10 -5 0 -7 -8 -9 -22 -4 -32 9 -35 14 -18 25 13 8 13 10 0 19 -8 5 -19 10 -25
10 -5 0 -3 -4 5 -10 12 -7 10 -12 -12 -29 -18 -14 -24 -27 -21 -41 4 -16 0
-20 -21 -20 -18 0 -26 -5 -26 -17 0 -10 -5 -25 -10 -33 -9 -13 -11 -13 -20 0
-6 10 -5 17 6 23 12 7 12 12 4 22 -7 8 -8 19 -4 26 4 7 2 10 -7 7 -8 -3 -13
-12 -11 -22 2 -9 -2 -16 -8 -16 -6 0 -15 -11 -21 -24 -7 -14 -17 -22 -23 -20
-16 6 -15 44 1 44 7 0 13 5 13 11 0 16 -22 6 -34 -17 -6 -10 -15 -22 -20 -26
-6 -4 2 -12 17 -19 28 -13 34 -24 17 -34 -6 -3 -10 1 -10 10 0 9 -6 15 -12 12
-7 -2 -13 -11 -13 -20 0 -23 -14 -32 -21 -14 -5 15 -8 15 -30 0 -27 -17 -25
-25 8 -30 12 -2 24 -6 27 -8 5 -5 -21 -59 -57 -120 -16 -27 -47 -81 -100 -175
-11 -19 -52 -91 -92 -160 -40 -69 -91 -159 -113 -200 -22 -41 -53 -95 -69
-119 -15 -25 -28 -51 -28 -58 0 -9 -16 -13 -50 -13 -36 0 -50 4 -50 14 0 8 -3
23 -6 33 -5 15 -4 15 5 3 8 -11 11 -12 11 -2 0 13 19 48 136 249 30 50 54 96
54 102 0 5 -9 13 -21 16 -16 5 -18 10 -10 18 9 9 14 8 22 -3 9 -13 10 -13 6 1
-3 9 2 27 10 40 l16 24 -24 -21 c-39 -35 -65 -44 -122 -44 -41 0 -63 6 -90 24
-19 13 -37 23 -39 21 -2 -2 -4 4 -5 13 -1 9 -9 42 -17 72 -15 52 -16 145 -2
168 3 6 1 21 -4 34 l-11 23 5 -24 c3 -16 2 -21 -5 -14 -6 6 -11 20 -12 32 -1
15 -8 21 -27 21 -32 0 -55 -14 -46 -29 4 -6 2 -11 -3 -11 -6 0 -11 7 -11 15 0
8 -5 15 -11 15 -5 0 -7 4 -4 10 3 6 -1 7 -9 4 -9 -3 -16 -2 -16 4 0 6 6 12 13
15 6 2 0 4 -15 3 l-27 -1 34 -35 c58 -59 76 -130 82 -315 9 -263 -25 -390
-119 -453 -36 -23 -51 -27 -117 -27 -94 1 -131 19 -172 83 -54 86 -64 137 -64
342 0 153 3 195 19 245 10 33 20 69 21 80 1 11 3 25 4 30 1 6 5 4 10 -3 7 -11
9 -11 14 0 3 9 -3 14 -17 14 -18 0 -22 -5 -21 -28 1 -15 -2 -28 -7 -28 -5 0
-7 -4 -4 -9 4 -5 2 -21 -4 -36 l-10 -27 -27 26 c-30 30 -48 34 -34 7 10 -18 6
-31 -11 -31 -5 0 -7 9 -3 19 3 11 1 22 -5 26 -5 3 -10 14 -9 23 0 14 2 13 9
-3 8 -18 9 -18 9 -2 1 11 -8 30 -19 44 -11 14 -20 20 -20 13 0 -10 -4 -9 -17
1 -13 11 -12 5 5 -25 40 -69 55 -157 56 -331 1 -221 -23 -315 -95 -385 -40
-38 -89 -53 -153 -48 -151 13 -212 116 -223 378 -5 120 4 248 22 306 4 10 -2
4 -13 -15 l-19 -34 -6 39 c-4 25 -2 41 6 46 8 5 7 8 -5 8 -11 0 -18 -10 -21
-27 -2 -17 -5 -5 -7 27 -2 51 -3 53 -10 20 l-7 -35 -3 35 c-1 19 -6 46 -10 60
-4 14 -9 -155 -9 -375 -1 -220 -5 -405 -9 -412 -4 -7 -38 -13 -82 -14 l-75 -2
-3 336 -2 337 -55 0 c-30 0 -57 5 -61 12 -4 6 -7 37 -7 67 l1 56 -7 -45 c-7
-42 -8 -43 -13 -15 -4 23 -5 20 -4 -12 1 -24 -2 -43 -6 -43 -5 0 -8 8 -8 18 0
10 -5 23 -12 30 -9 9 -9 12 0 12 7 0 12 5 12 12 0 9 -3 9 -12 0 -21 -21 -41
-14 -34 11 4 16 1 24 -8 24 -8 0 -12 -6 -8 -15 4 -12 1 -14 -14 -8 -10 4 -32
10 -49 13 -35 7 -47 21 -39 46 3 9 1 17 -5 17 -6 0 -11 -5 -11 -11 0 -6 -8 -9
-17 -7 -23 4 -19 22 9 30 15 5 11 6 -15 3 -25 -2 -35 0 -31 7 4 6 3 8 -4 4 -7
-4 -12 6 -15 26 -2 18 -4 5 -3 -29 1 -34 -1 -60 -4 -58 -4 2 -12 -17 -19 -43
-14 -53 -50 -112 -68 -112 -17 0 -16 6 7 73 24 67 26 176 6 257 -8 30 -37 120
-65 200 -71 206 -70 241 11 403 l35 68 -25 50 c-25 51 -24 72 2 50 8 -7 20
-10 25 -6 6 3 8 0 5 -8 -3 -8 1 -19 9 -26 12 -9 16 -7 20 8 3 11 0 22 -7 25
-6 2 -4 5 5 5 20 1 70 228 70 321 1 100 0 108 -16 145 -20 50 -33 48 -168 -32
-66 -40 -108 -43 -130 -9 -45 67 -27 113 97 256 149 173 380 349 613 470 70
36 83 37 83 8z m733 -153 c-3 -9 -8 -14 -10 -11 -3 3 -2 9 2 15 9 16 15 13 8
-4z m-337 -226 c25 -17 52 -28 60 -25 8 3 13 2 10 -3 -9 -14 104 -52 189 -62
154 -20 296 2 434 67 95 45 95 45 115 25 19 -20 19 -21 1 -41 -10 -11 -38 -30
-61 -42 -24 -12 -40 -26 -37 -31 3 -6 1 -7 -5 -3 -6 3 -50 -6 -99 -21 -77 -23
-106 -27 -233 -27 -110 -1 -163 4 -220 18 -101 25 -232 88 -249 120 -33 60 23
75 95 25z m229 -598 c8 -40 29 -99 50 -138 38 -70 99 -138 115 -128 5 3 12 0
16 -6 4 -8 3 -9 -4 -5 -7 4 -12 4 -12 -1 1 -13 70 -54 102 -60 15 -3 28 -9 28
-13 0 -19 75 -32 143 -27 l71 6 -22 -21 c-47 -47 -195 -28 -311 40 -54 32
-134 109 -155 151 -9 17 -20 31 -25 31 -8 0 -41 124 -41 155 0 24 22 96 28 91
2 -3 10 -36 17 -75z m2332 -223 c30 -39 23 -43 -61 -43 -73 0 -87 -3 -143 -33
-68 -37 -144 -109 -195 -183 -56 -83 -66 -55 -18 46 46 96 149 181 260 216 41
12 147 10 157 -3z m-2072 -98 c3 -6 -1 -7 -9 -4 -18 7 -21 14 -7 14 6 0 13 -4
16 -10z m1048 -157 c51 -29 63 -43 46 -54 -37 -24 -99 5 -99 47 0 29 11 30 53
7z m373 -378 c0 -19 -3 -22 -13 -13 -7 6 -13 17 -13 24 0 8 6 14 13 14 7 0 13
-11 13 -25z m-171 -56 c12 -19 -5 -23 -22 -6 -16 16 -16 17 -1 17 9 0 20 -5
23 -11z m-60 -59 c3 -5 1 -10 -4 -10 -6 0 -11 5 -11 10 0 6 2 10 4 10 3 0 8
-4 11 -10z m8 -27 c-7 -2 -19 -2 -25 0 -7 3 -2 5 12 5 14 0 19 -2 13 -5z m-83
-17 c0 -3 -4 -8 -10 -11 -5 -3 -10 -1 -10 4 0 6 5 11 10 11 6 0 10 -2 10 -4z
m70 -6 c0 -5 -2 -10 -4 -10 -3 0 -8 5 -11 10 -3 6 -1 10 4 10 6 0 11 -4 11
-10z m-147 -65 c-3 -9 -8 -14 -10 -11 -3 3 -2 9 2 15 9 16 15 13 8 -4z m-2373
-35 c0 -5 -4 -10 -10 -10 -5 0 -10 5 -10 10 0 6 5 10 10 10 6 0 10 -4 10 -10z
m44 -26 c18 -7 22 -44 5 -44 -6 0 -13 9 -16 20 -6 24 -23 27 -23 3 0 -9 -3
-14 -6 -10 -9 8 3 37 15 37 5 0 16 -3 25 -6z m1604 -28 c12 -26 5 -69 -10 -60
-5 3 -4 12 3 20 6 8 8 18 4 22 -4 4 -10 1 -12 -5 -6 -18 -23 -16 -23 2 0 8 4
15 10 15 5 0 7 7 4 15 -10 25 12 17 24 -9z m20 -1 c-3 -3 -9 2 -12 12 -6 14
-5 15 5 6 7 -7 10 -15 7 -18z m-1548 -26 c0 -19 -20 -18 -30 1 -15 28 -1 49
17 25 7 -11 13 -22 13 -26z m947 9 c-3 -8 -6 -5 -6 6 -1 11 2 17 5 13 3 -3 4
-12 1 -19z m-1097 -7 c0 -6 -4 -13 -10 -16 -5 -3 -10 1 -10 9 0 9 5 16 10 16
6 0 10 -4 10 -9z m3556 -33 c4 -7 3 -8 -4 -4 -7 4 -12 2 -12 -5 0 -7 -3 -10
-6 -6 -6 5 3 27 11 27 2 0 7 -5 11 -12z m-3576 -8 c0 -5 -2 -10 -4 -10 -3 0
-8 5 -11 10 -3 6 -1 10 4 10 6 0 11 -4 11 -10z m150 -14 c0 -3 -4 -8 -10 -11
-5 -3 -10 -1 -10 4 0 6 5 11 10 11 6 0 10 -2 10 -4z m3417 -48 c-3 -7 -5 -2
-5 12 0 14 2 19 5 13 2 -7 2 -19 0 -25z m-2924 -13 c-3 -9 -8 -14 -10 -11 -3
3 -2 9 2 15 9 16 15 13 8 -4z m4 -107 c-3 -7 -5 -2 -5 12 0 14 2 19 5 13 2 -7
2 -19 0 -25z m2867 -95 c-1 -27 -6 -61 -12 -78 l-9 -30 -8 35 c-4 19 -13 39
-19 43 -7 6 -5 7 6 3 15 -4 17 0 13 27 l-5 32 14 -35 15 -35 -6 43 c-3 23 -1
42 4 42 5 0 8 -21 7 -47z m-1117 -26 c17 -9 41 -30 53 -47 42 -59 45 -203 5
-279 -32 -63 -115 -91 -199 -67 -65 19 -102 70 -111 155 -3 31 -8 70 -10 86
-4 22 -2 26 5 15 7 -10 8 -1 4 30 -5 35 -2 49 10 59 9 7 16 10 16 5 0 -4 11 3
24 15 53 50 138 61 203 28z m-195 4 c-8 -4 -13 -11 -13 -15 1 -3 -1 -6 -4 -6
-3 0 -5 2 -5 5 0 3 0 10 0 15 0 6 8 10 18 10 13 0 14 -2 4 -9z m-2910 -81 c10
-41 15 -77 11 -81 -5 -4 -174 -107 -378 -229 -407 -245 -473 -288 -529 -350
-103 -115 -111 -272 -19 -407 37 -56 79 -93 241 -218 57 -44 140 -108 185
-143 90 -71 406 -313 768 -589 491 -374 521 -391 729 -400 125 -6 233 10 560
82 289 64 319 67 895 101 433 25 581 40 671 69 82 26 236 103 829 414 193 101
458 240 590 309 543 283 559 294 604 384 56 112 34 225 -60 314 -24 23 -181
144 -349 269 -384 286 -469 350 -498 375 l-23 19 21 73 c12 40 23 74 25 76 2
2 102 -70 223 -160 121 -90 275 -203 343 -253 137 -98 520 -382 727 -538 73
-55 142 -111 152 -125 25 -31 35 -83 23 -119 -8 -24 -63 -75 -109 -101 -14 -8
-21 -26 -23 -59 -1 -7 -9 -13 -18 -13 -13 0 -14 -3 -5 -12 18 -18 14 -30 -6
-17 -16 10 -36 2 -123 -44 -57 -31 -113 -64 -124 -75 -11 -10 -24 -19 -28 -20
-6 -1 -96 -50 -387 -210 -25 -13 -74 -40 -110 -60 -36 -19 -81 -45 -100 -57
-19 -12 -85 -48 -145 -80 -174 -90 -230 -124 -228 -134 2 -6 -4 -8 -11 -5 -12
5 -131 -57 -161 -84 -6 -5 -16 -5 -25 1 -12 7 -50 -8 -145 -56 -72 -35 -140
-73 -152 -83 -22 -18 -22 -21 -7 -51 14 -29 18 -30 47 -22 17 5 68 31 113 59
45 27 85 50 90 50 5 0 27 12 49 27 22 15 34 20 28 11 -7 -8 -10 -18 -6 -21 3
-4 -1 -7 -11 -7 -9 0 -15 -4 -12 -9 3 -5 -2 -15 -11 -22 -13 -11 -17 -11 -20
-1 -6 17 -28 15 -44 -4 -11 -13 -9 -14 14 -9 17 5 27 3 27 -4 0 -7 10 -5 25 5
14 9 28 14 31 12 2 -3 -7 -13 -22 -23 -19 -12 -29 -14 -37 -6 -18 18 -31 13
-16 -6 11 -15 11 -16 -1 -5 -8 6 -21 12 -29 12 -11 0 -10 -4 5 -16 10 -8 14
-13 7 -10 -16 8 -53 -8 -81 -34 -12 -11 -27 -18 -33 -14 -7 4 -10 1 -7 -7 7
-20 -160 -121 -187 -113 -14 4 -16 3 -7 -4 14 -10 -3 -22 -143 -97 -38 -21
-74 -41 -80 -45 -33 -25 -143 -78 -149 -73 -3 3 -6 1 -6 -5 0 -7 -20 -22 -44
-35 -24 -12 -79 -41 -123 -64 -44 -23 -91 -44 -104 -46 -13 -2 -36 -9 -50 -15
-47 -19 -73 -19 -77 2 -3 13 0 16 10 10 11 -6 11 -5 0 8 -7 8 -10 23 -6 32 3
9 2 16 -4 16 -5 0 -12 7 -15 14 -4 10 -1 13 9 9 9 -3 4 7 -10 22 -14 15 -26
33 -26 39 -1 23 -37 86 -45 79 -4 -5 -5 1 -1 12 4 11 4 16 0 13 -3 -4 -26 12
-51 35 -69 65 -144 112 -229 143 -44 15 -99 41 -123 56 -86 54 -131 63 -306
63 -186 0 -244 -12 -374 -77 -99 -50 -176 -117 -214 -187 -29 -52 -48 -151
-30 -151 9 0 40 73 58 138 13 45 111 128 208 176 125 61 219 79 390 74 107 -3
143 -9 190 -27 31 -12 57 -25 57 -29 0 -4 -55 -8 -123 -8 -129 -2 -216 -19
-349 -70 -100 -38 -215 -119 -260 -183 -41 -59 -45 -71 -25 -71 7 0 27 20 44
44 67 95 202 174 378 222 85 23 120 27 235 28 157 0 228 -15 326 -70 69 -39
121 -92 171 -176 37 -61 53 -123 59 -223 2 -38 5 -101 8 -139 3 -46 1 -80 -9
-102 -19 -46 -111 -138 -131 -130 -8 3 -13 2 -10 -3 6 -9 -79 -66 -99 -66 -5
-1 -40 -15 -76 -33 -37 -18 -73 -32 -81 -32 -8 0 -18 -4 -24 -9 -9 -9 -119
-37 -234 -60 -31 -7 -119 -12 -195 -13 -148 -2 -254 16 -355 60 -58 25 -72 42
-105 127 -15 39 -31 75 -35 80 -16 22 -42 145 -38 179 4 39 -5 45 -33 20 -32
-29 -238 -53 -364 -41 -22 2 -53 4 -70 5 -24 2 -27 4 -15 13 11 7 4 8 -24 3
-26 -4 -37 -3 -33 4 4 5 0 13 -9 16 -10 4 -13 2 -8 -6 5 -8 2 -9 -10 -5 -10 4
-23 7 -29 7 -7 0 -3 7 7 15 20 15 25 68 14 147 -3 22 -1 39 6 41 6 2 1 2 -11
0 -13 -2 -23 1 -23 7 0 5 12 10 27 10 36 0 19 14 -37 29 -59 17 -122 51 -192
103 -73 55 -359 273 -550 420 -80 62 -209 161 -285 220 -76 58 -167 129 -203
157 -36 28 -141 109 -235 180 -354 269 -435 331 -600 460 -93 73 -186 144
-205 159 -19 14 -61 52 -92 83 -66 64 -72 89 -35 153 31 54 65 79 282 204 452
259 900 521 1025 597 74 46 139 82 144 81 6 -1 18 -35 28 -76z m2708 38 c0 -5
-4 -7 -9 -4 -5 4 -11 0 -14 -6 -2 -7 -4 -1 -3 14 1 20 4 24 14 16 6 -6 12 -15
12 -20z m-44 -65 c-8 -15 -15 -25 -16 -21 0 12 23 58 27 54 3 -2 -2 -17 -11
-33z m171 -5 c-3 -8 -6 -5 -6 6 -1 11 2 17 5 13 3 -3 4 -12 1 -19z m1336 -26
c-4 -31 -10 -42 -19 -38 -14 5 -19 -10 -15 -50 1 -12 -5 -36 -13 -55 -9 -19
-16 -27 -16 -19 -4 51 -4 78 -1 74 6 -6 31 66 31 89 0 9 7 17 15 17 8 0 15 8
15 17 0 9 2 14 4 12 3 -2 2 -24 -1 -47z m-97 -258 c-18 -27 -36 -32 -36 -9 0
8 7 15 15 15 9 0 18 13 23 33 5 27 7 29 10 9 2 -13 -4 -34 -12 -48z m209 -106
c6 -13 24 -32 42 -43 18 -11 32 -22 32 -25 1 -3 -15 -15 -33 -27 -22 -14 -37
-33 -41 -52 -9 -40 -18 -39 -30 1 -7 22 -22 40 -48 54 l-38 21 35 21 c20 12
41 33 48 47 14 31 20 31 33 3z m-278 -10 c-3 -8 -6 -5 -6 6 -1 11 2 17 5 13 3
-3 4 -12 1 -19z m-2287 -164 l0 -146 -34 -34 c-28 -28 -41 -34 -77 -34 -42 0
-109 33 -109 54 0 15 41 76 51 76 5 0 12 -6 15 -14 8 -21 34 -28 50 -15 11 9
14 42 14 135 l0 124 45 0 45 0 0 -146z m235 129 c5 -10 9 -25 11 -33 2 -8 19
-69 39 -134 37 -127 43 -166 23 -167 -7 0 -21 -2 -30 -4 -20 -4 -61 23 -53 35
9 15 -25 40 -48 36 -12 -3 -30 -5 -39 -5 -11 -1 -18 -11 -20 -33 -3 -31 -6
-33 -45 -36 -25 -2 -43 1 -43 7 0 20 41 187 66 269 l25 82 53 0 c42 0 56 -4
61 -17z m177 -58 c11 -38 23 -71 28 -73 4 -2 6 -11 3 -21 -3 -10 0 -22 5 -25
6 -3 17 19 26 51 42 148 36 138 85 141 l44 3 -7 -43 c-3 -24 -28 -104 -54
-178 l-47 -135 -37 -3 c-30 -3 -40 1 -53 22 -9 14 -18 31 -19 38 -1 7 -21 72
-44 143 -23 72 -42 136 -42 143 0 9 14 12 47 10 l46 -3 19 -70z m404 30 c8
-22 28 -92 45 -155 17 -63 32 -122 35 -131 3 -13 -5 -18 -31 -23 -42 -8 -61 3
-70 42 -5 25 -9 27 -50 24 -39 -4 -45 -7 -50 -33 -4 -16 -12 -30 -18 -30 -7
-1 -23 -3 -37 -5 -48 -6 -49 0 -19 108 31 109 36 145 19 118 -7 -11 -9 -7 -7
17 1 17 5 29 8 27 4 -2 10 8 13 21 4 14 11 23 16 20 6 -3 15 6 20 20 9 24 14
26 61 23 50 -3 51 -4 65 -43z m-719 13 c-3 -8 -6 -5 -6 6 -1 11 2 17 5 13 3
-3 4 -12 1 -19z m2166 3 c3 -15 1 -18 -11 -14 -11 5 -14 2 -9 -11 4 -10 3 -15
-3 -11 -11 7 -13 38 -3 48 11 12 21 8 26 -12z m-3963 -41 c0 -10 -6 -23 -13
-29 -11 -8 -18 -6 -32 9 -17 19 -17 21 0 40 14 15 21 17 32 9 7 -6 13 -19 13
-29z m4440 -25 c0 -8 -7 -15 -15 -15 -16 0 -20 12 -8 23 11 12 23 8 23 -8z
m-2703 -97 c-3 -7 -5 -2 -5 12 0 14 2 19 5 13 2 -7 2 -19 0 -25z m-2129 4 c2
-7 -3 -12 -12 -12 -9 0 -16 7 -16 16 0 17 22 14 28 -4z m4482 -17 c0 -8 -4
-15 -10 -15 -5 0 -10 7 -10 15 0 8 5 15 10 15 6 0 10 -7 10 -15z m-4320 -10
c0 -8 -7 -15 -15 -15 -8 0 -15 7 -15 15 0 8 7 15 15 15 8 0 15 -7 15 -15z
m4083 0 c-3 -9 -8 -14 -10 -11 -3 3 -2 9 2 15 9 16 15 13 8 -4z m-4483 -15 c0
-5 -4 -10 -10 -10 -5 0 -10 5 -10 10 0 6 5 10 10 10 6 0 10 -4 10 -10z m5277
-66 c7 -19 -20 -49 -36 -40 -12 8 -15 39 -4 49 12 12 33 7 40 -9z m-4473 -32
c27 -12 47 -25 44 -27 -3 -3 -27 4 -54 16 -36 17 -68 22 -124 22 -85 0 -136
-18 -212 -77 -53 -40 -66 -33 -17 9 33 27 97 62 139 76 47 15 172 5 224 -19z
m-591 -26 c64 -27 112 -82 168 -188 91 -175 198 -256 382 -291 91 -17 117 -33
37 -23 -133 17 -293 98 -354 179 -13 18 -47 75 -75 127 -98 184 -207 236 -346
167 -22 -10 -49 -27 -59 -36 -16 -13 -18 -14 -14 -1 2 8 31 29 64 47 66 36
140 44 197 19z m4117 -10 c0 -3 -4 -8 -10 -11 -5 -3 -10 -1 -10 4 0 6 5 11 10
11 6 0 10 -2 10 -4z m648 -14 c2 -7 -3 -12 -12 -12 -9 0 -16 7 -16 16 0 17 22
14 28 -4z m506 -68 c7 -19 -1 -54 -13 -54 -5 0 -14 6 -20 14 -9 11 -9 19 1 35
15 25 24 26 32 5z m-4789 -34 c9 -17 27 -36 40 -42 l25 -11 -29 -18 c-15 -9
-34 -32 -41 -51 l-13 -33 -10 34 c-7 23 -20 38 -39 45 -35 13 -35 20 -2 34 14
7 30 26 36 42 5 17 12 30 14 30 2 0 11 -14 19 -30z m4025 20 c0 -5 -2 -10 -4
-10 -3 0 -8 5 -11 10 -3 6 -1 10 4 10 6 0 11 -4 11 -10z m-4599 -83 c-1 -12
-15 -9 -19 4 -3 6 1 10 8 8 6 -3 11 -8 11 -12z m-153 -15 c2 -7 -3 -12 -12
-12 -9 0 -16 7 -16 16 0 17 22 14 28 -4z m952 -1 c0 -28 -17 -35 -29 -13 -11
21 -6 32 16 32 7 0 13 -9 13 -19z m4320 -16 c0 -8 -4 -15 -10 -15 -5 0 -10 7
-10 15 0 8 5 15 10 15 6 0 10 -7 10 -15z m-515 -25 c0 -29 -32 -41 -41 -16 -9
24 4 48 23 44 12 -2 18 -12 18 -28z m193 18 c29 -29 3 -75 -32 -56 -12 6 -22
12 -24 13 -1 1 2 14 7 29 11 28 30 33 49 14z m-418 -33 c0 -8 -4 -15 -10 -15
-5 0 -10 7 -10 15 0 8 5 15 10 15 6 0 10 -7 10 -15z m71 -179 c29 -9 82 -16
118 -16 53 -1 62 -3 47 -12 -25 -14 -139 -2 -192 21 -44 20 -124 86 -124 104
0 5 22 -11 49 -36 33 -31 66 -51 102 -61z m-4471 48 c0 -9 -5 -14 -12 -12 -18
6 -21 28 -4 28 9 0 16 -7 16 -16z m5098 -6 c20 -20 14 -37 -15 -44 -19 -5 -30
-2 -39 11 -24 33 24 63 54 33z m-4948 -102 c0 -8 -4 -17 -9 -21 -12 -7 -24 12
-16 25 9 15 25 12 25 -4z m950 -17 c67 -29 56 -37 -15 -10 -105 39 -172 25
-252 -52 -45 -43 -59 -41 -20 3 81 91 169 110 287 59z m3149 0 c24 -23 21 -54
-7 -76 -28 -23 -80 -20 -99 5 -18 25 -16 43 9 69 27 29 67 30 97 2z m-3879 -4
c0 -8 -7 -15 -15 -15 -8 0 -15 7 -15 15 0 8 7 15 15 15 8 0 15 -7 15 -15z
m4488 -22 c-4 -22 -22 -20 -26 1 -2 10 3 16 13 16 10 0 15 -7 13 -17z m1220
-30 c-2 -9 -9 -18 -17 -21 -9 -3 -11 0 -6 8 4 7 2 16 -6 21 -10 6 -8 9 9 9 17
0 23 -5 20 -17z m-39 -73 c5 0 14 7 21 15 7 8 17 15 23 15 5 0 0 -9 -13 -20
-26 -23 -23 -22 -44 -14 -9 4 -16 18 -16 33 0 42 15 48 18 7 2 -20 7 -36 11
-36z m-69 10 c0 -23 -34 -47 -78 -56 -25 -5 -32 -3 -32 9 0 10 6 13 20 10 27
-7 70 22 70 48 0 11 5 17 10 14 6 -3 10 -15 10 -25z m29 -49 c-13 -11 -30 -20
-38 -21 -8 0 1 11 20 23 40 28 52 26 18 -2z m-5540 -32 c-12 -23 -37 -25 -46
-3 -9 23 25 48 43 33 10 -8 11 -16 3 -30z m311 16 c0 -18 -5 -25 -19 -25 -11
0 -21 6 -24 13 -7 20 4 37 24 37 14 0 19 -7 19 -25z m3860 -6 c19 -5 49 -18
65 -30 17 -12 21 -18 10 -14 -77 28 -142 45 -176 45 -45 0 -136 -32 -174 -62
-14 -11 -29 -17 -32 -14 -15 15 93 74 157 86 37 8 93 4 150 -11z m-3232 -26
c-10 -2 -26 -2 -35 0 -10 3 -2 5 17 5 19 0 27 -2 18 -5z m2537 -26 c97 -27
306 -133 345 -174 8 -9 -5 -4 -30 11 -88 52 -217 115 -281 136 -83 27 -255 38
-337 20 -91 -19 -184 -68 -204 -109 -32 -65 -56 -81 -117 -81 -31 0 -63 4 -71
10 -9 6 8 8 51 7 75 -2 90 6 120 64 27 54 117 103 234 129 53 12 227 4 290
-13z m-2257 -85 c3 -16 -2 -22 -16 -22 -21 0 -36 25 -26 41 10 17 39 5 42 -19z
m-723 -17 c0 -13 -8 -21 -22 -23 -17 -3 -23 2 -23 16 0 10 3 22 7 26 13 13 38
1 38 -19z m1494 -49 c15 -18 3 -46 -19 -46 -10 0 -21 7 -24 16 -6 16 9 44 24
44 4 0 13 -6 19 -14z m1258 -2 c8 -21 -13 -42 -28 -27 -13 13 -5 43 11 43 6 0
13 -7 17 -16z m-2962 -54 c0 -13 -6 -25 -12 -27 -16 -6 -27 21 -19 43 9 23 31
11 31 -16z m740 -10 c4 -11 20 -27 37 -36 l30 -16 -30 -18 c-17 -10 -33 -28
-37 -39 -9 -28 -21 -26 -29 4 -4 15 -18 30 -33 36 l-27 10 32 25 c18 14 32 32
32 40 0 21 18 17 25 -6z m650 1 c3 -5 1 -12 -5 -16 -5 -3 -10 1 -10 9 0 18 6
21 15 7z m1933 -22 c-2 -6 -8 -10 -13 -10 -5 0 -11 4 -13 10 -2 6 4 11 13 11
9 0 15 -5 13 -11z m-251 -44 c7 -20 -2 -29 -21 -22 -9 4 -13 13 -10 22 8 19
23 19 31 0z m-2056 -42 c-6 -21 -11 -56 -11 -78 0 -22 -5 -47 -11 -55 -14 -20
-5 114 10 154 16 41 25 26 12 -21z m1719 6 c0 -12 -7 -19 -20 -19 -22 0 -29
35 -7 43 18 6 27 -2 27 -24z m-2580 -27 c0 -13 -12 -22 -22 -16 -10 6 -1 24
13 24 5 0 9 -4 9 -8z m2098 -46 c-4 -25 -36 -34 -44 -12 -8 21 13 46 32 39 8
-3 14 -15 12 -27z m-834 15 c10 -16 -6 -42 -23 -39 -9 2 -17 13 -19 26 -3 16
2 22 17 22 11 0 22 -4 25 -9z m-908 -102 c-13 -68 -14 -71 -15 -28 -1 42 16
115 25 107 2 -2 -3 -38 -10 -79z m-160 34 c-10 -10 -19 5 -10 18 6 11 8 11 12
0 2 -7 1 -15 -2 -18z m784 12 c0 -8 -4 -15 -9 -15 -13 0 -22 16 -14 24 11 11
23 6 23 -9z m670 -1 c0 -8 -4 -12 -10 -9 -5 3 -10 10 -10 16 0 5 5 9 10 9 6 0
10 -7 10 -16z m-134 -91 c-10 -10 -19 5 -10 18 6 11 8 11 12 0 2 -7 1 -15 -2
-18z m864 17 c0 -5 -2 -10 -4 -10 -3 0 -8 5 -11 10 -3 6 -1 10 4 10 6 0 11 -4
11 -10z m-1810 -35 c0 -18 -5 -25 -19 -25 -11 0 -21 6 -24 13 -7 20 4 37 24
37 14 0 19 -7 19 -25z m3165 -34 c-6 -5 -64 -41 -130 -79 -87 -51 -123 -67
-132 -60 -19 16 -16 23 20 41 17 9 77 41 132 71 61 33 104 51 110 45 6 -6 6
-12 0 -18z m-2646 -19 c7 -14 6 -25 -5 -41 l-15 -21 -19 22 c-17 21 -17 25 -3
41 20 22 30 22 42 -1z m871 -27 c0 -8 -4 -15 -10 -15 -5 0 -10 7 -10 15 0 8 5
15 10 15 6 0 10 -7 10 -15z m-1400 -66 c0 -5 -7 -9 -15 -9 -15 0 -20 12 -9 23
8 8 24 -1 24 -14z m280 -14 c0 -8 -4 -15 -10 -15 -5 0 -10 7 -10 15 0 8 5 15
10 15 6 0 10 -7 10 -15z m2912 -172 c-10 -4 -7 -9 8 -20 17 -12 19 -17 9 -24
-8 -5 -22 -6 -31 -3 -14 4 -18 0 -18 -20 0 -18 -4 -24 -15 -20 -8 4 -15 1 -15
-6 0 -8 9 -10 25 -6 28 7 31 0 11 -26 -8 -12 -16 -14 -23 -7 -6 6 -18 6 -34
-1 -24 -10 -23 -10 4 -5 23 5 27 2 27 -17 0 -12 -10 -32 -22 -45 -21 -23 -45
-32 -33 -13 3 6 1 10 -4 10 -6 0 -11 -7 -11 -15 0 -8 -6 -15 -14 -15 -7 0 -25
-11 -40 -25 -15 -14 -35 -25 -44 -25 -15 0 -15 -2 -2 -10 12 -8 10 -10 -10
-11 -14 0 -19 -3 -12 -6 6 -2 12 -9 12 -14 0 -5 -6 -9 -12 -9 -9 0 -13 -17
-14 -50 -1 -28 3 -50 8 -50 5 0 7 -9 3 -19 -11 -36 14 -32 36 6 12 21 32 46
45 56 30 23 51 12 98 -49 31 -40 36 -43 45 -27 9 16 10 15 11 -8 0 -18 -6 -28
-20 -32 -13 -3 -20 0 -20 10 0 8 -5 11 -11 7 -6 -3 -8 -15 -6 -26 6 -21 -11
-58 -27 -58 -5 0 -15 8 -23 18 -13 16 -14 15 -8 -5 5 -19 2 -23 -17 -24 -13 0
-17 -3 -10 -6 6 -2 12 -9 12 -15 0 -6 -7 -8 -15 -4 -10 4 -14 -1 -12 -17 1
-16 -3 -22 -18 -22 -24 0 -42 -24 -26 -34 7 -5 2 -12 -14 -19 -14 -6 -25 -18
-25 -27 0 -8 -4 -15 -10 -15 -5 0 -10 4 -10 10 0 14 -28 1 -34 -17 -9 -21 3
-31 14 -13 6 8 10 10 10 4 0 -6 -11 -21 -25 -34 -14 -13 -25 -18 -25 -11 0 7
-5 9 -11 5 -6 -3 -9 -15 -6 -25 3 -11 1 -19 -4 -19 -5 0 -9 7 -9 15 0 12 -4
11 -20 -5 -11 -11 -24 -20 -29 -20 -5 0 -11 -10 -13 -22 -3 -24 -35 -33 -55
-16 -10 8 -13 5 -13 -11 0 -18 -4 -20 -25 -15 -15 4 -25 2 -25 -5 0 -6 7 -11
16 -11 13 0 14 -2 1 -14 -9 -9 -24 -12 -37 -9 -20 5 -22 3 -17 -17 4 -17 3
-20 -6 -11 -6 6 -22 11 -36 11 -19 0 -22 -3 -13 -12 16 -16 15 -29 -1 -22 -14
5 -74 -22 -69 -32 2 -3 -8 -17 -22 -31 -31 -31 -34 -22 -5 18 11 16 17 29 12
29 -12 0 -27 -13 -39 -35 -7 -11 -19 -19 -28 -19 -9 1 -16 -2 -16 -7 0 -5 5
-9 11 -9 5 0 7 -5 3 -11 -4 -8 -9 -7 -15 2 -7 11 -12 12 -29 1 -12 -7 -20 -8
-20 -2 0 5 -5 10 -11 10 -5 0 -7 -4 -4 -10 4 -6 -6 -11 -22 -11 l-28 -1 30 -7
30 -7 -30 -8 c-16 -4 -33 -13 -37 -19 -3 -6 -28 -11 -56 -11 -40 -1 -48 -4
-45 -17 3 -9 0 -20 -6 -23 -6 -4 -11 -1 -11 6 -1 8 -6 6 -15 -6 -11 -15 -22
-17 -54 -12 -34 5 -39 4 -35 -9 4 -8 2 -15 -4 -15 -6 0 -12 6 -15 13 -3 10 -9
10 -26 0 -11 -7 -34 -13 -51 -13 -16 0 -30 -4 -30 -10 0 -14 -27 -13 -36 1 -3
6 0 15 7 20 11 7 10 9 -3 9 -10 0 -18 -6 -18 -14 0 -16 -21 -26 -55 -26 -18 0
-26 -8 -36 -37 -10 -32 -13 -35 -19 -18 -4 11 -6 23 -3 28 2 4 -1 7 -6 7 -6 0
-11 -4 -11 -10 0 -5 -17 -12 -37 -16 -21 -4 -44 -11 -50 -17 -9 -6 -13 -6 -13
1 0 6 -8 9 -17 7 -10 -2 -31 -4 -48 -4 -23 -1 -27 -4 -15 -11 12 -8 10 -10 -8
-10 -13 0 -20 4 -17 10 8 13 -8 13 -21 0 -14 -14 -50 -1 -62 23 -6 13 -11 16
-11 8 -1 -8 6 -23 16 -33 9 -10 13 -21 10 -25 -4 -3 -18 6 -31 20 -30 33 -32
33 -40 5 l-7 -23 -11 23 c-11 22 -28 30 -28 12 0 -5 -10 -9 -22 -8 -13 1 -34
-2 -48 -7 -14 -4 -22 -4 -18 0 10 10 -20 38 -44 42 -11 2 -17 -1 -14 -6 3 -4
-14 -8 -37 -8 l-42 0 30 14 30 13 -40 -5 -40 -5 44 14 c24 8 47 15 50 14 3 0
8 0 11 2 28 10 200 30 217 24 15 -5 16 -4 3 5 -13 9 -12 11 6 11 38 0 248 72
324 110 178 90 332 227 416 370 43 72 84 181 84 221 0 12 10 23 25 29 14 5
132 66 262 136 303 161 294 156 317 176 11 10 29 21 40 24 12 4 52 27 90 51
83 53 166 95 166 82 0 -5 5 -9 11 -9 6 0 9 6 6 14 -6 16 1 26 17 25 6 0 5 -3
-2 -6z m8 -73 c0 -5 -4 -10 -10 -10 -5 0 -10 5 -10 10 0 6 5 10 10 10 6 0 10
-4 10 -10z m39 -48 c-14 -5 -39 6 -39 17 0 5 11 4 25 -2 13 -7 20 -14 14 -15z
m-64 -58 c-23 -23 -32 -8 -9 17 10 11 20 16 22 10 2 -6 -4 -18 -13 -27z m45
-9 c0 -8 -4 -15 -10 -15 -5 0 -10 7 -10 15 0 8 5 15 10 15 6 0 10 -7 10 -15z
m33 -36 c44 -12 111 -68 133 -112 15 -27 14 -31 -7 -53 -12 -13 -26 -24 -30
-24 -3 0 -26 19 -50 41 -24 23 -74 56 -111 74 l-67 32 22 20 c37 34 55 38 110
22z m-3886 -145 c-3 -3 -12 -4 -19 -1 -8 3 -5 6 6 6 11 1 17 -2 13 -5z m61
-43 c-2 -27 -5 -48 -9 -46 -3 2 -4 23 -3 47 2 49 2 48 10 48 3 0 4 -22 2 -49z
m-125 24 c-3 -9 -8 -14 -10 -11 -3 3 -2 9 2 15 9 16 15 13 8 -4z m253 -80 c6
-6 9 -15 7 -22 -3 -7 3 -9 15 -6 13 3 26 -4 41 -23 11 -14 21 -23 21 -19 0 4
7 2 15 -5 8 -7 13 -16 10 -20 -3 -5 0 -12 6 -16 8 -4 9 -3 5 4 -4 7 -3 12 3
12 5 0 11 -4 13 -8 2 -5 30 -28 63 -52 33 -24 62 -46 65 -50 10 -12 147 -86
200 -107 104 -42 226 -64 385 -69 83 -3 156 -7 163 -9 7 -3 20 -21 28 -41 12
-29 27 -41 82 -66 37 -17 110 -42 162 -56 83 -22 116 -25 265 -26 138 0 191 4
283 22 244 49 448 146 583 277 68 66 84 92 93 150 8 45 36 65 93 65 44 0 51
-29 23 -99 -24 -61 -53 -103 -130 -185 -79 -84 -166 -138 -370 -229 -67 -30
-246 -78 -345 -93 -114 -17 -379 -20 -470 -5 -69 12 -198 52 -203 63 -2 5 -11
8 -21 8 -9 0 -56 23 -104 50 -48 28 -89 50 -92 50 -3 0 -5 -15 -5 -34 0 -25
10 -45 41 -80 22 -25 36 -46 30 -46 -6 0 -11 -10 -11 -22 0 -21 1 -21 14 -3
12 17 14 17 37 2 23 -17 23 -17 2 -17 -12 0 -28 -2 -35 -5 -16 -6 -58 26 -58
43 0 6 6 9 14 6 11 -4 13 0 9 15 -6 23 -19 28 -25 9 -3 -7 -24 -11 -59 -10
-37 1 -48 -1 -34 -7 11 -5 23 -7 28 -4 13 8 47 -8 47 -23 0 -8 -5 -14 -11 -14
-5 0 -7 5 -4 10 4 6 -8 10 -28 10 -40 0 -58 17 -50 48 4 17 2 21 -10 17 -9 -4
-24 6 -41 27 -19 24 -26 28 -26 16 0 -10 5 -18 10 -18 14 0 12 -26 -3 -38 -15
-12 -57 -5 -57 10 0 5 5 6 11 2 7 -4 10 1 7 11 -5 26 -28 31 -28 6 0 -14 -5
-19 -15 -15 -19 8 -19 28 1 48 14 15 14 16 -5 16 -12 0 -21 -4 -21 -10 0 -5
-7 -10 -15 -10 -8 0 -15 5 -15 10 0 6 -7 10 -16 10 -8 0 -12 -4 -9 -10 3 -5
-4 -10 -16 -10 -20 0 -20 1 -6 23 14 22 13 24 -17 44 -17 12 -47 28 -68 36
-20 9 -39 25 -43 37 -6 20 -7 21 -21 3 -13 -17 -13 -17 -14 5 0 22 -1 22 -25
6 -23 -15 -25 -15 -25 0 0 9 3 15 8 14 16 -3 55 19 44 26 -6 4 -21 1 -33 -6
-16 -10 -23 -10 -26 -1 -2 7 -11 9 -19 6 -11 -4 -14 4 -14 37 0 25 -4 39 -10
35 -5 -3 -10 -14 -10 -24 0 -13 -8 -18 -30 -18 -22 0 -30 5 -30 19 0 12 -8 18
-22 19 -22 1 -22 1 2 9 14 4 22 9 18 10 -15 5 -28 8 -39 9 -6 0 -8 8 -5 17 5
14 4 15 -9 4 -9 -7 -19 -10 -23 -6 -4 4 4 16 18 26 l25 20 -34 -10 c-43 -12
-65 3 -57 39 3 14 3 20 0 14 -9 -21 -44 -15 -44 7 0 25 17 26 24 3 4 -14 4
-13 3 2 -2 14 -9 19 -25 18 -12 -2 -22 2 -22 7 0 6 -7 10 -15 10 -8 0 -15 5
-15 10 0 6 -10 10 -22 10 -22 1 -23 1 -4 15 14 11 16 15 5 15 -8 0 -25 3 -39
6 -19 4 -22 3 -10 -5 12 -8 12 -13 2 -23 -9 -9 -12 -9 -12 5 0 9 -6 17 -12 18
-10 0 -10 2 0 6 6 2 12 22 12 43 0 33 3 37 20 33 14 -4 20 0 20 11 0 19 -21
21 -38 4 -6 -6 -15 -8 -19 -4 -5 4 0 13 10 20 21 16 22 26 2 26 -8 0 -15 7
-15 16 0 13 53 -24 116 -81z m-106 -29 c0 -3 -4 -8 -10 -11 -5 -3 -10 -1 -10
4 0 6 5 11 10 11 6 0 10 -2 10 -4z m167 -188 c-3 -8 -6 -5 -6 6 -1 11 2 17 5
13 3 -3 4 -12 1 -19z m3206 -175 c-7 -2 -19 -2 -25 0 -7 3 -2 5 12 5 14 0 19
-2 13 -5z m-2873 -73 c0 -5 -2 -10 -4 -10 -3 0 -8 5 -11 10 -3 6 -1 10 4 10 6
0 11 -4 11 -10z m110 -40 c14 0 20 -7 20 -22 0 -21 0 -21 -22 -2 -43 36 -47
42 -41 48 4 4 11 0 15 -9 5 -8 18 -15 28 -15z m2480 -70 c0 -5 -5 -10 -11 -10
-5 0 -7 5 -4 10 3 6 8 10 11 10 2 0 4 -4 4 -10z m-2220 -60 c-19 -13 -30 -13
-30 0 0 6 10 10 23 10 18 0 19 -2 7 -10z m2050 -30 c0 -5 -2 -10 -4 -10 -3 0
-8 5 -11 10 -3 6 -1 10 4 10 6 0 11 -4 11 -10z m-1965 -41 c11 -17 -1 -21 -15
-4 -8 9 -8 15 -2 15 6 0 14 -5 17 -11z m65 7 c0 -3 -4 -8 -10 -11 -5 -3 -10
-1 -10 4 0 6 5 11 10 11 6 0 10 -2 10 -4z m90 -26 c0 -5 -4 -10 -10 -10 -5 0
-10 5 -10 10 0 6 5 10 10 10 6 0 10 -4 10 -10z m80 -20 c-8 -5 -19 -10 -25
-10 -5 0 -3 5 5 10 8 5 20 10 25 10 6 0 3 -5 -5 -10z m77 -36 c-1 -1 -13 -4
-26 -6 -16 -2 -25 2 -26 13 -2 14 1 15 26 6 15 -6 27 -12 26 -13z m77 -20 c4
-9 4 -19 1 -22 -2 -3 -7 3 -11 12 -8 21 -24 21 -24 -1 0 -9 -3 -14 -6 -10 -10
10 4 37 20 37 7 0 17 -7 20 -16z m243 -10 c-3 -3 -12 -4 -19 -1 -8 3 -5 6 6 6
11 1 17 -2 13 -5z m807 -14 c-10 -4 -23 -5 -28 -2 -13 7 16 21 32 14 13 -4 12
-7 -4 -12z m-920 -29 c-8 -9 -22 12 -17 26 6 15 7 14 13 -3 4 -10 6 -21 4 -23z
m156 29 c-12 -8 -12 -10 -1 -10 8 0 12 -2 9 -5 -3 -3 -13 -2 -22 1 -14 5 -15
9 -4 15 7 5 18 9 23 9 6 0 3 -5 -5 -10z m-90 -10 c0 -5 -2 -10 -4 -10 -3 0 -8
5 -11 10 -3 6 -1 10 4 10 6 0 11 -4 11 -10z m900 0 c0 -5 -2 -10 -4 -10 -3 0
-8 5 -11 10 -3 6 -1 10 4 10 6 0 11 -4 11 -10z m-654 -37 c-3 -21 -10 -21 -29
-3 -18 17 -17 18 6 16 14 0 24 -6 23 -13z m-89 1 c-3 -3 -12 -4 -19 -1 -8 3
-5 6 6 6 11 1 17 -2 13 -5z m58 -32 c-3 -3 -11 0 -18 7 -9 10 -8 11 6 5 10 -3
15 -9 12 -12z"/>
<path d="M6827 9079 c-52 -27 -83 -63 -298 -350 -104 -137 -224 -293 -267
-347 -146 -181 -175 -239 -135 -274 10 -9 81 -41 158 -71 77 -30 376 -150 665
-267 289 -117 622 -250 740 -297 365 -144 592 -233 670 -263 41 -15 114 -44
162 -64 94 -39 143 -45 174 -21 18 14 16 15 -19 9 -31 -5 -60 2 -157 41 l-119
47 26 42 c14 22 54 82 88 131 34 50 136 201 227 336 163 242 318 471 324 478
4 4 165 -54 203 -74 16 -8 35 -28 42 -44 18 -40 29 -30 18 16 -10 45 -43 74
-119 104 -30 12 -74 31 -98 41 -23 10 -77 31 -120 47 -88 33 -232 91 -312 127
-30 13 -345 139 -700 280 -355 140 -701 278 -770 306 -69 27 -147 59 -175 69
-66 25 -158 25 -208 -2z m179 -45 c27 -9 51 -18 53 -20 6 -5 -36 -66 -152
-221 -143 -191 -310 -419 -439 -600 l-108 -152 -66 25 c-115 43 -134 53 -134
68 0 8 20 41 45 73 51 65 449 591 479 632 156 214 194 237 322 195z m824 -506
c25 -5 54 -11 65 -14 29 -5 148 -54 163 -67 7 -6 11 -19 9 -29 -3 -10 -1 -18
4 -18 5 0 9 7 9 15 0 23 42 -6 107 -71 61 -62 96 -126 113 -208 13 -65 8 -111
-21 -170 -10 -21 -16 -42 -14 -46 3 -4 -2 -11 -11 -14 -12 -5 -14 -1 -9 17 5
19 4 20 -5 5 -15 -24 -40 -23 -40 1 0 29 26 47 46 30 14 -11 15 -9 9 27 -7 37
-6 38 9 19 15 -20 15 -19 16 7 0 14 -5 28 -11 30 -13 4 -17 72 -6 113 5 21 5
26 -3 15 -7 -11 -10 -12 -10 -2 0 10 -5 9 -17 -3 -12 -13 -14 -21 -6 -34 21
-33 25 -77 8 -91 -8 -7 -15 -19 -15 -26 0 -8 -6 -14 -14 -14 -15 0 -26 -21
-26 -49 0 -9 -9 -34 -20 -56 -21 -41 -15 -63 15 -51 12 4 15 13 11 31 -7 27
-6 28 18 19 24 -9 19 -26 -16 -60 -46 -42 -90 -72 -135 -90 l-38 -16 24 26
c17 18 20 26 10 26 -8 0 -27 7 -43 15 -27 14 -34 14 -75 0 -24 -8 -55 -15 -68
-15 -13 0 -23 -6 -23 -14 0 -11 10 -14 38 -11 25 3 30 2 14 -3 -13 -4 -23 -10
-23 -14 1 -5 1 -12 1 -18 0 -5 16 -10 36 -10 21 0 33 4 29 10 -7 11 18 14 29
3 12 -12 -96 -42 -151 -43 -41 0 -52 4 -55 17 -2 12 -14 18 -41 18 -35 1 -41
-4 -38 -31 1 -12 -52 -6 -160 19 -89 20 -239 98 -290 152 -92 97 -147 237
-132 341 7 56 69 152 121 192 21 15 44 35 53 44 27 30 149 81 233 98 87 18
243 17 326 -2z m565 -228 c3 -5 2 -10 -4 -10 -5 0 -13 5 -16 10 -3 6 -2 10 4
10 5 0 13 -4 16 -10z m-148 -162 c-3 -8 -6 -5 -6 6 -1 11 2 17 5 13 3 -3 4
-12 1 -19z m-1275 -210 c-9 -9 -12 -7 -12 12 0 19 3 21 12 12 9 -9 9 -15 0
-24z m998 -157 c0 -15 -16 -22 -35 -15 -13 5 -14 8 -3 15 18 12 38 11 38 0z
m34 -37 c5 -14 4 -15 -9 -4 -17 14 -19 20 -6 20 5 0 12 -7 15 -16z m-87 -10
c-3 -3 -12 -4 -19 -1 -8 3 -5 6 6 6 11 1 17 -2 13 -5z m-17 -149 c0 -8 -4 -15
-9 -15 -13 0 -22 16 -14 24 11 11 23 6 23 -9z"/>
<path d="M6615 8636 c-6 -7 -38 -53 -73 -101 -58 -80 -71 -108 -42 -90 19 12
149 189 144 197 -8 12 -18 10 -29 -6z"/>
<path d="M7840 8509 c0 -7 -10 -9 -25 -5 -16 4 -25 2 -25 -5 0 -7 3 -9 6 -6 4
4 19 -2 34 -13 21 -15 27 -16 27 -4 0 7 -4 14 -8 14 -5 0 -6 7 -3 15 4 8 3 15
0 15 -3 0 -6 -5 -6 -11z"/>
<path d="M7588 8493 c12 -2 30 -2 40 0 9 3 -1 5 -23 4 -22 0 -30 -2 -17 -4z"/>
<path d="M7658 8493 c7 -3 16 -2 19 1 4 3 -2 6 -13 5 -11 0 -14 -3 -6 -6z"/>
<path d="M7755 8480 c28 -12 37 -12 30 0 -3 6 -16 10 -28 9 -21 0 -21 -1 -2
-9z"/>
<path d="M7680 8469 c0 -5 5 -7 10 -4 6 3 10 8 10 11 0 2 -4 4 -10 4 -5 0 -10
-5 -10 -11z"/>
<path d="M7289 8422 c-41 -24 -45 -30 -34 -45 15 -21 29 -22 21 -1 -3 8 -2 13
3 10 5 -3 11 4 14 15 5 17 12 21 37 17 24 -4 30 -1 28 10 -5 24 -20 23 -69 -6z"/>
<path d="M7713 8423 c-4 -10 -12 -22 -20 -26 -15 -9 -18 -37 -4 -37 8 0 51 64
51 76 0 12 -21 2 -27 -13z"/>
<path d="M7781 8420 c-1 -3 -4 -22 -5 -44 -2 -27 0 -34 6 -22 5 9 7 29 5 44
-2 15 -5 25 -6 22z"/>
<path d="M8061 8374 c0 -11 3 -14 6 -6 3 7 2 16 -1 19 -3 4 -6 -2 -5 -13z"/>
<path d="M7336 8335 c4 -10 -1 -15 -15 -16 -12 -1 -27 -2 -33 -3 -7 -1 -12 5
-10 12 1 7 -8 12 -22 12 -19 0 -26 -7 -31 -30 -4 -16 -12 -30 -19 -30 -8 0
-16 -19 -20 -46 -8 -63 -8 -74 4 -74 6 0 10 13 10 29 0 17 5 33 10 36 6 3 10
15 10 26 0 14 5 19 18 17 12 -2 17 -12 16 -36 -1 -24 3 -32 16 -32 10 0 21 -6
24 -12 6 -14 -4 29 -12 51 -4 10 -1 12 8 6 10 -6 12 -4 7 8 -4 10 1 21 11 27
15 10 14 11 -5 7 -13 -3 -23 -1 -23 4 0 5 10 10 23 10 39 3 52 5 67 12 8 3 24
8 35 10 15 4 13 5 -7 6 -15 0 -30 6 -33 11 -10 16 -35 12 -29 -5z"/>
<path d="M7720 8330 c0 -13 5 -18 15 -14 8 4 15 12 15 20 0 8 -7 14 -15 14 -8
0 -15 -9 -15 -20z"/>
<path d="M7185 8330 c-3 -5 1 -10 10 -10 9 0 13 5 10 10 -3 6 -8 10 -10 10 -2
0 -7 -4 -10 -10z"/>
<path d="M7470 8310 c11 -21 40 -17 40 6 0 8 -10 14 -25 14 -22 0 -24 -3 -15
-20z"/>
<path d="M7991 8304 c0 -11 3 -14 6 -6 3 7 2 16 -1 19 -3 4 -6 -2 -5 -13z"/>
<path d="M8161 8273 c-1 -18 3 -33 8 -33 5 0 11 -10 13 -22 5 -32 28 -35 28
-4 0 14 -4 26 -8 26 -5 0 -16 15 -25 33 l-16 32 0 -32z"/>
<path d="M7690 8279 c0 -5 5 -7 10 -4 6 3 10 8 10 11 0 2 -4 4 -10 4 -5 0 -10
-5 -10 -11z"/>
<path d="M7940 8260 c-12 -17 -20 -38 -18 -47 3 -15 4 -15 21 1 12 13 25 16
43 12 19 -5 25 -3 21 6 -2 7 -10 12 -17 10 -7 -2 -10 5 -6 20 3 13 3 17 0 11
-8 -18 -27 -16 -20 2 9 24 -1 18 -24 -15z m20 -10 c0 -5 -5 -10 -11 -10 -5 0
-7 5 -4 10 3 6 8 10 11 10 2 0 4 -4 4 -10z"/>
<path d="M7496 8259 c5 -8 9 -20 10 -27 4 -27 13 -24 11 4 -1 15 -8 29 -16 32
-10 3 -11 0 -5 -9z"/>
<path d="M7582 8221 c9 -15 9 -23 -1 -34 -8 -10 -9 -17 -1 -22 5 -3 10 1 10 9
0 9 5 16 10 16 6 0 9 -10 8 -22 -2 -13 2 -24 7 -26 12 -3 16 36 4 44 -20 12
-8 33 17 31 15 -1 29 4 32 11 3 11 0 12 -16 3 -15 -8 -21 -8 -25 2 -3 9 -7 9
-20 -2 -11 -9 -17 -10 -17 -2 0 6 -5 11 -10 11 -6 0 -5 -8 2 -19z"/>
<path d="M7535 8220 c3 -5 10 -10 16 -10 5 0 9 5 9 10 0 6 -7 10 -16 10 -8 0
-12 -4 -9 -10z"/>
<path d="M7532 8178 c7 -15 15 -23 17 -17 2 6 -4 18 -13 27 -15 15 -15 15 -4
-10z"/>
<path d="M7230 8170 c0 -5 5 -10 10 -10 6 0 10 5 10 10 0 6 -4 10 -10 10 -5 0
-10 -4 -10 -10z"/>
<path d="M7945 8170 c3 -5 10 -10 16 -10 5 0 9 5 9 10 0 6 -7 10 -16 10 -8 0
-12 -4 -9 -10z"/>
<path d="M8050 8170 c0 -5 7 -10 15 -10 8 0 15 5 15 10 0 6 -7 10 -15 10 -8 0
-15 -4 -15 -10z"/>
<path d="M7330 8155 c0 -5 5 -17 10 -25 5 -8 10 -10 10 -5 0 6 -5 17 -10 25
-5 8 -10 11 -10 5z"/>
<path d="M7999 8153 c-1 -5 0 -16 1 -26 1 -10 -6 -27 -14 -36 -9 -10 -14 -25
-10 -35 9 -22 24 -20 24 4 0 11 6 20 13 20 7 0 12 15 12 40 0 25 -5 40 -12 40
-7 0 -14 -3 -14 -7z"/>
<path d="M7894 8133 c-3 -13 -10 -23 -14 -23 -18 0 -17 -26 1 -27 11 -1 19 5
19 13 0 8 5 12 10 9 12 -7 12 3 0 30 -9 19 -9 19 -16 -2z"/>
<path d="M7161 8104 c0 -11 3 -14 6 -6 3 7 2 16 -1 19 -3 4 -6 -2 -5 -13z"/>
<path d="M7831 8092 c-6 -12 -6 -23 0 -33 9 -12 10 -12 6 1 -2 8 0 23 5 33 5
9 6 17 4 17 -3 0 -10 -8 -15 -18z"/>
<path d="M8281 8064 c0 -11 3 -14 6 -6 3 7 2 16 -1 19 -3 4 -6 -2 -5 -13z"/>
<path d="M7790 8035 c-7 -9 -11 -17 -9 -20 3 -2 10 5 17 15 14 24 10 26 -8 5z"/>
<path d="M7186 8021 c-5 -7 -3 -18 3 -24 14 -14 20 -6 11 17 -5 15 -9 16 -14
7z"/>
<path d="M7920 8015 c0 -8 -7 -15 -15 -15 -8 0 -15 -9 -15 -20 0 -17 5 -19 27
-16 32 6 54 26 35 33 -6 3 -10 8 -7 13 3 4 -2 10 -10 14 -9 3 -15 0 -15 -9z"/>
<path d="M7380 7988 c0 -13 9 -34 20 -48 23 -30 27 -10 4 25 -9 13 -13 29 -9
35 3 5 1 10 -4 10 -6 0 -11 -10 -11 -22z"/>
<path d="M7793 8003 c-7 -2 -13 -11 -13 -20 0 -20 34 -12 38 10 3 17 -3 20
-25 10z"/>
<path d="M7280 7990 c0 -5 7 -10 15 -10 8 0 15 5 15 10 0 6 -7 10 -15 10 -8 0
-15 -4 -15 -10z"/>
<path d="M7170 7964 c0 -8 5 -12 10 -9 6 4 8 11 5 16 -9 14 -15 11 -15 -7z"/>
<path d="M7735 7897 c-12 -29 -13 -41 -3 -62 12 -28 28 -33 28 -10 0 9 -7 18
-15 21 -8 4 -15 11 -15 16 0 6 7 8 15 4 19 -7 33 40 16 57 -8 8 -15 1 -26 -26z"/>
<path d="M7920 7916 c0 -12 10 -16 40 -16 22 0 40 5 40 10 0 6 -11 10 -24 10
-13 0 -31 3 -40 6 -11 4 -16 1 -16 -10z"/>
<path d="M7823 7880 c-7 -27 -6 -36 4 -38 7 -2 13 -8 13 -13 0 -5 18 -9 40 -9
22 0 40 5 40 10 0 9 -31 14 -46 8 -3 -2 -14 15 -24 37 l-18 39 -9 -34z"/>
<path d="M7256 7884 c-8 -21 -8 -24 3 -24 12 0 22 28 12 35 -5 3 -12 -2 -15
-11z"/>
<path d="M7280 7856 c0 -9 5 -16 10 -16 6 0 10 4 10 9 0 6 -4 13 -10 16 -5 3
-10 -1 -10 -9z"/>
<path d="M7450 7859 c0 -5 5 -7 10 -4 6 3 10 8 10 11 0 2 -4 4 -10 4 -5 0 -10
-5 -10 -11z"/>
<path d="M7390 7850 c0 -5 7 -10 15 -10 20 0 19 -10 -2 -26 -16 -12 -16 -15
-3 -24 8 -5 21 -10 28 -10 18 0 14 51 -5 66 -22 16 -33 17 -33 4z"/>
<path d="M8000 7830 c0 -18 3 -19 21 -9 17 9 19 13 8 20 -22 14 -29 11 -29
-11z"/>
<path d="M7312 7828 c2 -6 14 -18 26 -26 18 -12 22 -12 22 -1 0 8 -12 19 -26
26 -17 8 -24 8 -22 1z"/>
<path d="M8080 7820 c-9 -16 -8 -19 6 -13 12 4 15 3 10 -5 -4 -7 -3 -12 3 -12
18 0 21 18 3 25 -16 7 -15 8 3 15 17 7 17 9 3 9 -10 1 -22 -8 -28 -19z"/>
<path d="M7502 7788 c-16 -16 -15 -28 3 -28 8 0 15 9 15 20 0 23 -2 24 -18 8z"/>
<path d="M7618 7763 c12 -2 32 -2 45 0 12 2 2 4 -23 4 -25 0 -35 -2 -22 -4z"/>
<path d="M7410 7756 c0 -2 7 -6 15 -10 8 -3 15 -1 15 4 0 6 -7 10 -15 10 -8 0
-15 -2 -15 -4z"/>
<path d="M7560 7746 c0 -2 9 -6 20 -9 11 -3 20 -1 20 4 0 5 -9 9 -20 9 -11 0
-20 -2 -20 -4z"/>
<path d="M6710 6273 c0 -5 5 -15 10 -23 8 -12 10 -11 10 8 0 12 -4 22 -10 22
-5 0 -10 -3 -10 -7z"/>
<path d="M6567 6113 c-4 -3 -7 -13 -7 -22 1 -13 3 -13 11 2 11 19 8 33 -4 20z"/>
<path d="M6445 6070 c3 -5 14 -10 23 -10 15 0 15 2 2 10 -20 13 -33 13 -25 0z"/>
<path d="M6530 6040 c0 -6 7 -10 15 -10 8 0 15 2 15 4 0 2 -7 6 -15 10 -8 3
-15 1 -15 -4z"/>
<path d="M6433 6025 c-3 -10 0 -21 8 -26 21 -13 36 -11 43 6 4 13 2 14 -14 5
-16 -8 -18 -8 -14 4 3 8 1 17 -5 21 -6 3 -14 -1 -18 -10z"/>
<path d="M6400 5979 c0 -5 5 -7 10 -4 6 3 10 8 10 11 0 2 -4 4 -10 4 -5 0 -10
-5 -10 -11z"/>
<path d="M6290 5972 c0 -5 9 -12 21 -15 13 -3 19 -1 16 6 -5 15 -37 22 -37 9z"/>
<path d="M3765 5930 c3 -5 11 -10 16 -10 6 0 7 5 4 10 -3 6 -11 10 -16 10 -6
0 -7 -4 -4 -10z"/>
<path d="M3731 5894 c0 -11 3 -14 6 -6 3 7 2 16 -1 19 -3 4 -6 -2 -5 -13z"/>
<path d="M5978 5893 c7 -3 16 -2 19 1 4 3 -2 6 -13 5 -11 0 -14 -3 -6 -6z"/>
<path d="M6078 5863 c-5 -20 -2 -23 20 -22 16 1 20 3 10 6 -9 2 -18 12 -20 21
-3 13 -5 12 -10 -5z"/>
<path d="M5933 5863 c9 -2 25 -2 35 0 9 3 1 5 -18 5 -19 0 -27 -2 -17 -5z"/>
<path d="M5977 5838 c6 -7 13 -20 16 -28 3 -9 6 -3 6 13 1 19 -4 27 -15 27
-12 0 -14 -4 -7 -12z"/>
<path d="M5920 5820 c0 -11 2 -20 4 -20 2 0 6 9 9 20 3 11 1 20 -4 20 -5 0 -9
-9 -9 -20z"/>
<path d="M5350 5779 c0 -5 5 -7 10 -4 6 3 10 8 10 11 0 2 -4 4 -10 4 -5 0 -10
-5 -10 -11z"/>
<path d="M5830 5780 c0 -5 5 -10 10 -10 6 0 10 5 10 10 0 6 -4 10 -10 10 -5 0
-10 -4 -10 -10z"/>
<path d="M5879 5783 c-1 -5 -1 -11 0 -15 0 -5 -3 -8 -9 -8 -5 0 -10 -6 -10
-14 0 -8 -10 -23 -23 -33 -30 -23 -40 -52 -26 -69 8 -10 10 -46 7 -112 -4 -81
-3 -91 6 -64 6 18 15 30 19 25 5 -4 5 1 1 11 -5 12 -4 17 2 13 6 -3 9 5 6 21
-3 20 4 35 24 55 14 15 31 27 35 27 5 0 9 7 9 15 0 8 4 15 10 15 5 0 7 8 4 18
-4 13 -1 11 14 -6 l20 -22 12 36 c7 19 10 38 7 40 -3 3 -8 -8 -12 -25 -4 -17
-11 -29 -16 -25 -5 3 -6 10 -3 16 4 7 2 8 -4 4 -7 -4 -12 -1 -13 6 0 7 -5 3
-11 -9 -13 -26 -25 -28 -52 -8 -11 8 -16 20 -12 30 7 19 26 11 26 -11 0 -8 5
-14 10 -14 6 0 10 9 10 20 0 11 7 23 15 26 8 4 15 12 15 18 0 7 -7 13 -15 13
-8 0 -15 -9 -15 -19 0 -10 -5 -18 -11 -18 -7 0 -9 12 -5 35 4 22 3 35 -4 35
-5 0 -11 -3 -11 -7z m-39 -103 c0 -5 -5 -10 -11 -10 -5 0 -7 5 -4 10 3 6 8 10
11 10 2 0 4 -4 4 -10z m30 -35 c0 -2 -9 -9 -20 -15 -16 -9 -20 -8 -20 5 0 8 9
15 20 15 11 0 20 -2 20 -5z m-33 -67 c-3 -8 -6 -5 -6 6 -1 11 2 17 5 13 3 -3
4 -12 1 -19z"/>
<path d="M3788 5773 c6 -2 18 -2 25 0 6 3 1 5 -13 5 -14 0 -19 -2 -12 -5z"/>
<path d="M5686 5773 c-12 -13 -5 -21 34 -41 22 -11 40 -15 40 -10 0 5 -10 13
-22 18 l-23 9 25 0 c19 1 21 4 12 13 -9 9 -15 9 -24 0 -7 -7 -19 -12 -27 -12
-13 0 -13 2 -2 9 7 5 9 11 3 14 -5 4 -12 4 -16 0z"/>
<path d="M3850 5760 c-8 -5 -11 -12 -7 -17 5 -4 11 -3 15 3 4 6 14 14 22 17
13 5 13 5 0 6 -8 0 -22 -3 -30 -9z"/>
<path d="M5200 5758 c0 -20 44 -26 56 -7 4 8 -1 9 -16 4 -15 -5 -25 -2 -31 6
-7 11 -9 10 -9 -3z"/>
<path d="M5600 5753 c-30 -8 -59 -19 -65 -25 -7 -8 -4 -9 9 -4 10 3 39 11 65
18 25 6 50 15 56 19 11 11 5 10 -65 -8z"/>
<path d="M6011 5748 c-17 -27 -9 -32 12 -8 9 11 13 21 9 24 -5 3 -14 -4 -21
-16z"/>
<path d="M4581 5750 c-18 -4 -43 -18 -55 -31 l-21 -22 29 17 c15 10 47 24 70
31 45 14 31 18 -23 5z"/>
<path d="M5277 5753 c-10 -9 -9 -23 1 -23 5 0 9 7 9 15 0 17 -1 18 -10 8z"/>
<path d="M5958 5735 c-3 -14 -1 -25 3 -25 5 0 9 9 9 21 0 13 4 18 12 13 7 -4
8 -3 4 4 -12 19 -23 14 -28 -13z"/>
<path d="M3932 5725 c0 -16 2 -22 5 -12 2 9 2 23 0 30 -3 6 -5 -1 -5 -18z"/>
<path d="M5096 5741 c-3 -4 6 -6 19 -3 14 2 25 6 25 8 0 8 -39 4 -44 -5z"/>
<path d="M4400 5715 c0 -14 4 -25 9 -25 4 0 6 11 3 25 -2 14 -6 25 -8 25 -2 0
-4 -11 -4 -25z"/>
<path d="M5797 5721 c-25 -16 -26 -19 -12 -37 14 -19 14 -18 15 3 0 12 8 26
17 32 10 5 15 12 13 15 -3 3 -18 -3 -33 -13z"/>
<path d="M3883 5720 c-13 -5 -23 -15 -23 -21 0 -7 3 -9 7 -6 3 4 12 2 18 -3 9
-8 14 -4 17 15 3 14 5 25 4 24 0 0 -11 -4 -23 -9z"/>
<path d="M4031 5714 c0 -11 3 -14 6 -6 3 7 2 16 -1 19 -3 4 -6 -2 -5 -13z"/>
<path d="M4000 5705 c0 -8 4 -15 10 -15 5 0 7 7 4 15 -4 8 -8 15 -10 15 -2 0
-4 -7 -4 -15z"/>
<path d="M4930 5710 c0 -5 5 -10 10 -10 6 0 10 5 10 10 0 6 -4 10 -10 10 -5 0
-10 -4 -10 -10z"/>
<path d="M4361 5694 c0 -11 3 -14 6 -6 3 7 2 16 -1 19 -3 4 -6 -2 -5 -13z"/>
<path d="M4895 5700 c-3 -5 -1 -10 4 -10 6 0 11 5 11 10 0 6 -2 10 -4 10 -3 0
-8 -4 -11 -10z"/>
<path d="M4382 5665 c0 -16 2 -22 5 -12 2 9 2 23 0 30 -3 6 -5 -1 -5 -18z"/>
<path d="M4460 5650 c-12 -17 -20 -36 -18 -43 2 -7 12 6 24 30 25 51 23 54 -6
13z"/>
<path d="M5495 5669 c-4 -6 -5 -12 -2 -15 2 -3 7 2 10 11 7 17 1 20 -8 4z"/>
<path d="M4400 5641 c0 -5 5 -13 10 -16 6 -3 10 -2 10 4 0 5 -4 13 -10 16 -5
3 -10 2 -10 -4z"/>
<path d="M4908 5623 c7 -3 16 -2 19 1 4 3 -2 6 -13 5 -11 0 -14 -3 -6 -6z"/>
<path d="M5918 5599 c-20 -34 -23 -49 -9 -49 5 0 12 14 16 30 4 17 11 28 16
25 5 -4 6 1 3 9 -8 20 -6 21 -26 -15z"/>
<path d="M5626 5594 c-3 -9 -6 -39 -6 -69 0 -55 15 -80 39 -65 18 11 26 101
12 129 -14 25 -36 28 -45 5z"/>
<path d="M4610 5540 c-20 -29 -22 -43 -23 -223 -2 -164 0 -197 15 -223 10 -17
26 -34 38 -37 22 -6 37 8 18 17 -7 3 -2 3 11 0 20 -5 23 -3 18 10 -4 10 -3 15
2 12 16 -10 21 37 21 209 0 180 -9 238 -40 255 -29 15 -37 13 -60 -20z m37
-436 c0 -7 -6 -10 -14 -7 -7 3 -13 8 -13 12 0 4 6 8 13 8 8 0 14 -6 14 -13z"/>
<path d="M5141 5544 c-18 -24 -21 -41 -22 -148 -3 -275 2 -315 41 -336 29 -15
74 13 67 41 -3 10 -2 17 3 14 18 -11 25 205 11 344 -6 60 -11 77 -30 92 -31
25 -46 24 -70 -7z m25 -9 c-9 -9 -16 -13 -16 -8 0 12 22 34 28 28 2 -2 -3 -11
-12 -20z m45 -2 c8 -9 9 -14 2 -10 -6 4 -13 2 -15 -5 -2 -6 -9 -8 -16 -4 -9 5
-9 10 1 21 15 18 12 18 28 -2z"/>
<path d="M7221 5264 c0 -11 3 -14 6 -6 3 7 2 16 -1 19 -3 4 -6 -2 -5 -13z"/>
<path d="M6015 5139 c-4 -17 -4 -51 0 -75 5 -34 10 -44 25 -44 22 0 30 22 32
83 1 52 -6 67 -32 67 -12 0 -21 -10 -25 -31z"/>
<path d="M6960 3353 c-8 -3 -50 -26 -93 -50 -84 -49 -106 -82 -71 -108 31 -24
72 -17 153 25 101 53 125 74 110 101 -16 30 -63 45 -99 32z m67 -43 c4 -19
-144 -100 -181 -100 -35 0 -44 20 -16 39 101 69 191 97 197 61z"/>
<path d="M5205 2704 c-136 -29 -277 -113 -290 -173 -8 -37 9 -79 38 -92 19 -9
35 -6 85 15 149 63 225 78 422 85 l185 6 10 39 c9 36 7 40 -23 67 -17 15 -55
36 -84 45 -74 23 -253 28 -343 8z"/>
<path d="M4782 2413 c-132 -65 -95 -222 65 -279 161 -57 296 76 209 206 -52
79 -189 115 -274 73z m179 -30 c69 -36 103 -83 96 -136 -13 -97 -126 -134
-235 -78 -77 40 -112 107 -88 165 32 76 131 97 227 49z"/>
<path d="M4907 4620 c-3 -11 -1 -23 4 -26 5 -3 9 6 9 20 0 31 -6 34 -13 6z"/>
<path d="M7082 2721 c4 -13 18 -16 19 -4 0 4 -5 9 -11 12 -7 2 -11 -2 -8 -8z"/>
<path d="M7016 2684 c-11 -8 -16 -14 -10 -14 13 0 39 18 34 24 -3 2 -14 -2
-24 -10z"/>
<path d="M7061 2693 c0 -7 -13 -19 -28 -28 l-28 -15 30 6 c38 8 38 9 32 31 -3
10 -5 13 -6 6z"/>
<path d="M7065 2600 c-3 -5 -2 -10 4 -10 5 0 13 5 16 10 3 6 2 10 -4 10 -5 0
-13 -4 -16 -10z"/>
<path d="M6908 2083 c7 -3 16 -2 19 1 4 3 -2 6 -13 5 -11 0 -14 -3 -6 -6z"/>
<path d="M6050 1570 c0 -5 7 -10 16 -10 8 0 12 5 9 10 -3 6 -10 10 -16 10 -5
0 -9 -4 -9 -10z"/>
<path d="M5650 1480 c0 -5 5 -10 10 -10 6 0 10 5 10 10 0 6 -4 10 -10 10 -5 0
-10 -4 -10 -10z"/>
<path d="M3447 2283 c-4 -3 -7 -13 -7 -21 0 -12 3 -12 15 -2 8 7 15 16 15 21
0 11 -14 12 -23 2z"/>
<path d="M3546 2254 c-11 -8 -16 -14 -10 -14 13 0 39 18 34 24 -3 2 -14 -2
-24 -10z"/>
<path d="M3480 2250 c0 -5 5 -10 11 -10 5 0 7 5 4 10 -3 6 -8 10 -11 10 -2 0
-4 -4 -4 -10z"/>
<path d="M3755 2090 c-3 -6 1 -7 9 -4 18 7 21 14 7 14 -6 0 -13 -4 -16 -10z"/>
<path d="M3751 2001 c-10 -6 -10 -10 -1 -16 13 -8 24 -1 19 14 -3 6 -10 7 -18
2z"/>
<path d="M3855 1950 c3 -5 10 -10 16 -10 5 0 9 5 9 10 0 6 -7 10 -16 10 -8 0
-12 -4 -9 -10z"/>
<path d="M3978 1873 c7 -3 16 -2 19 1 4 3 -2 6 -13 5 -11 0 -14 -3 -6 -6z"/>
<path d="M4217 1725 c7 -49 13 -58 13 -19 0 16 -5 36 -10 44 -6 10 -7 2 -3
-25z"/>
<path d="M4335 1690 c-3 -5 1 -10 9 -10 9 0 16 5 16 10 0 6 -4 10 -9 10 -6 0
-13 -4 -16 -10z"/>
<path d="M4383 1685 c-10 -11 -9 -13 6 -12 11 1 17 7 14 14 -6 16 -5 16 -20
-2z"/>
<path d="M2103 8578 c-38 -43 -39 -118 -2 -118 22 0 28 10 31 60 2 19 8 38 13
42 6 5 5 8 -4 8 -11 0 -11 3 -1 15 21 25 -13 18 -37 -7z"/>
<path d="M893 7913 c-18 -7 -16 -38 3 -76 24 -47 155 -236 225 -325 l61 -77
-80 -7 c-99 -8 -124 -20 -120 -56 3 -23 44 -62 79 -74 5 -2 4 -16 -3 -36 -12
-31 -11 -35 10 -53 13 -10 40 -21 60 -24 72 -12 77 -14 96 -46 33 -56 195
-208 299 -280 119 -83 198 -125 250 -133 21 -3 74 -31 124 -65 126 -84 182
-116 240 -135 28 -9 71 -32 95 -50 72 -54 279 -191 341 -226 51 -28 62 -31 84
-21 21 10 24 16 19 39 -8 30 -79 140 -181 276 -60 81 -66 92 -60 124 5 29 9
33 28 28 49 -15 127 -19 129 -7 0 6 1 16 2 22 1 6 -33 34 -74 63 -73 50 -75
52 -78 97 -2 33 4 63 23 105 57 126 115 279 115 302 0 33 -34 78 -68 90 -38
13 -61 -1 -120 -70 -90 -108 -177 -207 -182 -207 -3 -1 -14 15 -24 34 -30 55
-120 133 -193 167 -94 44 -236 50 -323 14 -10 -4 -36 9 -71 36 -105 82 -309
262 -309 272 0 11 64 6 118 -8 76 -21 160 -62 300 -149 68 -43 126 -77 129
-77 19 0 -17 91 -84 217 -94 174 -117 203 -167 203 -42 0 -45 -6 -48 -125 -2
-47 -7 -79 -13 -78 -5 1 -38 14 -72 28 -69 28 -110 34 -168 24 l-40 -7 -121
119 c-154 154 -182 172 -231 152z m184 -144 c336 -318 510 -463 703 -586 208
-133 286 -171 378 -188 120 -21 161 -36 198 -71 48 -45 42 -56 -16 -31 -47 20
-50 20 -69 3 -11 -10 -25 -15 -32 -10 -8 5 -10 3 -4 -6 6 -10 4 -12 -8 -7 -10
4 -17 1 -17 -6 0 -8 -4 -6 -10 3 -8 12 -10 12 -10 -5 0 -17 -2 -17 -10 -5 -5
8 -10 10 -10 4 0 -12 -58 -7 -75 7 -6 4 -20 7 -31 7 -24 -2 -84 21 -84 32 0 4
-18 10 -40 14 -22 3 -40 11 -40 17 0 7 -10 9 -25 5 -19 -5 -25 -2 -26 11 0 10
-3 13 -5 7 -8 -20 -108 12 -100 32 5 13 -12 34 -27 34 -5 0 -4 -7 3 -15 10
-12 10 -15 -4 -15 -9 0 -16 5 -16 10 0 6 -6 10 -14 10 -19 0 -67 40 -61 51 4
5 0 7 -7 4 -15 -6 -127 82 -196 153 -89 92 -157 170 -232 267 -30 39 -57 72
-60 75 -53 51 -210 287 -210 315 0 22 48 -13 157 -116z m561 -26 c28 -41 152
-278 152 -292 0 -15 -25 -2 -62 32 -14 13 -37 27 -50 30 -34 9 -78 48 -85 77
-3 14 -8 60 -10 103 -4 72 -3 77 16 77 11 0 28 -12 39 -27z m-472 -350 c16 -6
16 -7 -2 -14 -17 -7 -17 -8 -1 -8 27 -1 20 -30 -10 -38 -41 -10 -53 -7 -103
21 -28 16 -39 27 -30 30 8 2 22 7 30 9 23 8 96 8 116 0z m1362 -76 c12 -11 22
-29 22 -39 0 -10 -33 -92 -73 -183 -63 -141 -76 -163 -87 -150 -7 8 -44 32
-81 51 -43 23 -69 43 -69 53 0 24 239 303 253 295 7 -4 22 -16 35 -27z m-1244
-22 c5 0 15 -10 24 -22 9 -15 10 -23 3 -23 -6 0 -11 5 -11 10 0 6 -5 10 -11
10 -6 0 -9 -6 -6 -13 3 -9 -6 -11 -36 -8 -30 2 -38 0 -32 -9 5 -8 3 -11 -6 -8
-8 3 -23 1 -33 -5 -14 -7 -22 -6 -30 5 -6 8 -18 17 -26 21 -12 4 -11 6 3 6 9
1 17 5 17 10 0 11 23 20 69 27 20 3 38 8 40 10 2 2 9 0 15 -4 6 -4 15 -7 20
-7z m645 -14 c117 -36 186 -93 245 -201 l27 -50 -36 0 c-61 0 -151 38 -263
109 -59 37 -133 84 -165 103 l-58 36 38 10 c61 16 147 13 212 -7z m-479 -143
c0 -32 -24 -108 -36 -112 -8 -3 -13 -2 -10 3 3 5 -1 14 -10 21 -8 7 -24 26
-35 42 -18 25 -18 27 -3 21 13 -5 10 3 -10 30 -16 20 -27 37 -25 38 2 0 14 2
26 3 13 2 26 5 29 9 7 6 74 -43 74 -55z m113 -107 c16 -18 25 -36 21 -42 -4
-7 -3 -9 4 -5 14 9 21 -14 11 -41 -5 -13 -4 -25 1 -28 6 -4 10 -1 10 6 0 7 9
2 20 -11 11 -12 17 -27 14 -32 -4 -6 -9 -5 -14 2 -5 8 -10 8 -14 2 -7 -12 21
-24 37 -16 7 3 3 -1 -7 -10 -22 -18 -41 -9 -132 62 -52 41 -65 64 -44 77 6 3
10 15 10 26 0 10 5 28 12 38 14 23 29 17 71 -28z m905 -249 c52 -35 91 -66 89
-69 -11 -10 -79 20 -152 68 -42 27 -80 49 -85 49 -13 0 -22 18 -15 29 9 16 64
-10 163 -77z m-292 -67 c1 -8 12 -28 24 -46 23 -31 23 -31 1 -18 -11 8 -21 21
-21 29 0 13 -2 13 -11 0 -9 -13 -10 -13 -6 2 3 9 -1 22 -9 29 -12 10 -12 14
-2 20 14 9 21 5 24 -16z m261 -147 c35 -38 127 -162 172 -233 47 -73 39 -100
-15 -50 -14 13 -30 22 -35 19 -5 -3 -12 2 -15 11 -4 9 -12 14 -20 11 -7 -3
-14 -2 -16 2 -2 5 -25 23 -53 42 -166 112 -195 134 -195 146 0 4 5 3 12 -4 17
-17 28 -15 21 4 -4 12 0 14 23 9 18 -4 24 -3 16 2 -9 7 -6 13 14 23 14 8 30
22 35 32 13 25 20 23 56 -14z m-160 6 c-3 -3 -12 -4 -19 -1 -8 3 -5 6 6 6 11
1 17 -2 13 -5z m-49 -11 c-10 -2 -28 -2 -40 0 -13 2 -5 4 17 4 22 1 32 -1 23
-4z"/>
<path d="M1416 7267 c3 -10 9 -15 12 -12 3 3 0 11 -7 18 -10 9 -11 8 -5 -6z"/>
<path d="M8033 6452 c-106 -38 -183 -128 -210 -244 -33 -143 44 -290 186 -357
81 -38 193 -37 272 2 66 32 132 99 162 165 30 66 30 188 0 254 -27 59 -105
143 -158 171 -57 29 -182 34 -252 9z m266 -59 c67 -50 113 -135 101 -188 -4
-19 -6 -35 -4 -35 3 0 -2 -13 -11 -30 -9 -17 -31 -36 -52 -45 -20 -8 -42 -23
-49 -33 -13 -16 -13 -16 -14 1 0 19 -13 22 -41 7 -10 -6 -19 -7 -19 -2 0 5
-14 8 -31 6 -18 -2 -28 0 -24 6 3 6 0 10 -8 10 -8 0 -29 14 -47 30 -18 17 -30
23 -26 15 3 -9 0 -15 -10 -15 -11 0 -14 5 -10 16 4 12 2 15 -9 11 -8 -4 -17
-2 -20 3 -3 4 1 11 7 13 7 3 2 6 -11 6 -17 1 -21 5 -17 17 3 8 2 13 -3 10 -5
-3 -15 4 -23 17 -20 30 -17 127 5 160 23 35 92 55 188 56 73 1 79 -1 128 -36z"/>
<path d="M1814 5816 c-62 -19 -111 -64 -144 -130 -117 -233 138 -457 355 -312
71 47 109 119 109 206 0 80 -25 131 -89 188 -66 58 -145 75 -231 48z m158 -42
c49 -26 66 -46 63 -76 -2 -16 1 -28 7 -28 5 0 6 10 3 23 -5 15 -4 19 3 12 16
-16 26 -59 12 -50 -9 6 -10 0 -6 -22 5 -23 3 -32 -9 -36 -8 -4 -20 -18 -25
-33 -10 -24 -14 -26 -55 -22 -24 3 -48 1 -54 -5 -7 -7 -12 -5 -17 6 -3 9 -14
17 -24 17 -11 0 -20 10 -24 25 -4 14 -14 25 -22 25 -11 0 -14 6 -10 16 3 8 2
13 -3 10 -17 -11 -30 20 -27 69 2 46 6 52 37 67 43 22 110 23 151 2z m-137
-192 c-3 -3 -11 0 -18 7 -9 10 -8 11 6 5 10 -3 15 -9 12 -12z"/>
<path d="M8340 5433 c-52 -36 -74 -91 -59 -147 30 -109 153 -136 228 -50 74
84 10 214 -106 214 -21 0 -50 -8 -63 -17z m131 -42 c30 -31 37 -67 19 -101
-14 -27 -35 -16 -96 47 l-52 53 27 15 c40 22 70 18 102 -14z"/>
<path d="M8365 5380 c3 -5 11 -10 16 -10 6 0 7 5 4 10 -3 6 -11 10 -16 10 -6
0 -7 -4 -4 -10z"/>
<path d="M7730 2147 c0 -46 75 -78 88 -38 3 10 0 12 -12 8 -10 -4 -15 -3 -11
3 3 6 -3 10 -13 10 -11 0 -22 9 -25 20 -7 28 -27 25 -27 -3z"/>
</g>
</svg>
