<svg id="svg" version="1.1" xmlns="http://www.w3.org/2000/svg" xmlns:xlink="http://www.w3.org/1999/xlink" width="400" height="400" viewBox="0, 0, 400,400"><g id="svgg"><path id="path0" d="M265.115 60.570 C 248.651 62.031,234.873 69.447,230.149 79.389 C 225.046 90.130,226.677 105.786,234.048 116.823 C 238.384 123.316,251.343 133.328,255.230 133.187 C 255.469 133.179,255.181 132.910,254.590 132.589 C 253.386 131.936,253.042 130.078,254.125 130.078 C 254.460 130.078,254.652 129.946,254.552 129.785 C 254.453 129.624,257.154 129.548,260.555 129.616 C 272.620 129.857,283.862 125.575,289.688 118.520 C 293.228 114.232,295.896 110.221,297.694 106.484 C 298.738 104.314,300.321 101.198,301.211 99.558 C 303.858 94.687,303.021 95.274,292.206 105.882 C 286.522 111.455,281.594 116.016,281.255 116.016 C 280.362 116.016,267.837 111.853,264.844 110.561 C 263.447 109.958,261.466 109.346,260.442 109.200 C 258.109 108.867,257.846 108.465,256.316 102.907 C 254.862 97.626,253.270 94.078,249.855 88.508 L 247.240 84.243 248.522 82.902 C 249.228 82.164,251.035 80.395,252.539 78.972 C 254.043 77.548,258.965 72.733,263.477 68.272 L 271.680 60.161 270.117 60.213 C 269.258 60.242,267.007 60.403,265.115 60.570 M246.627 106.007 C 251.701 108.128,249.763 115.625,244.141 115.625 C 240.996 115.625,239.453 114.185,239.453 111.249 C 239.453 107.350,243.232 104.589,246.627 106.007 M210.546 120.603 C 205.074 126.137,192.420 138.926,182.424 149.023 C 138.926 192.966,114.846 218.112,112.258 222.296 C 110.716 224.788,108.932 225.631,102.760 226.785 C 88.755 229.404,80.382 243.576,84.544 257.617 C 88.672 271.541,100.960 277.199,113.500 270.951 C 121.587 266.922,124.250 263.508,128.146 252.175 C 129.163 249.215,129.935 247.476,130.008 247.976 C 130.076 248.444,130.205 248.828,130.294 248.828 C 130.658 248.828,135.830 245.521,136.944 244.575 C 137.605 244.014,140.242 241.800,142.804 239.655 C 147.837 235.440,155.491 228.449,162.253 221.891 C 178.275 206.352,204.263 180.275,207.622 176.367 C 209.837 173.789,212.738 170.625,214.068 169.336 C 215.397 168.047,218.206 165.059,220.310 162.695 C 222.414 160.332,228.197 154.310,233.161 149.313 C 238.126 144.316,242.188 140.074,242.188 139.888 C 242.188 139.500,240.048 138.542,239.183 138.542 C 238.457 138.542,234.423 134.015,233.444 132.102 C 233.039 131.311,232.475 130.527,232.189 130.360 C 230.541 129.395,223.409 117.179,221.888 112.718 C 220.943 109.946,221.390 109.635,210.546 120.603 M224.612 131.735 C 228.126 133.548,229.107 135.149,229.084 139.036 C 229.055 143.918,228.755 144.332,215.640 157.617 C 209.277 164.063,199.772 173.730,194.516 179.102 C 174.148 199.918,148.121 225.055,144.275 227.623 C 137.083 232.426,129.225 228.420,129.170 219.922 C 129.141 215.468,131.075 212.656,141.004 202.720 C 143.481 200.241,148.848 194.708,152.930 190.425 C 182.577 159.319,205.040 137.012,210.968 132.791 C 214.717 130.121,220.599 129.666,224.612 131.735 M246.582 177.356 C 244.975 178.002,245.387 179.999,247.559 182.085 C 251.708 186.072,259.941 191.406,261.945 191.406 C 262.027 191.406,263.548 192.094,265.324 192.935 C 268.326 194.357,271.875 195.313,274.148 195.313 C 276.347 195.313,273.944 188.549,271.002 186.455 C 269.083 185.090,256.868 178.587,254.387 177.610 C 252.585 176.901,248.080 176.754,246.582 177.356 M233.144 183.944 C 230.523 187.932,228.125 192.625,228.125 193.765 C 228.125 194.385,232.609 202.574,233.448 203.487 C 233.724 203.787,234.672 202.217,236.733 198.047 C 237.848 195.791,239.355 193.110,240.083 192.089 C 240.811 191.068,241.406 189.821,241.406 189.319 C 241.406 188.599,236.915 182.014,235.609 180.819 C 235.467 180.690,234.358 182.096,233.144 183.944 M246.060 195.218 C 238.234 209.466,238.509 208.354,242.383 210.060 C 244.102 210.818,246.826 212.198,248.438 213.127 C 250.049 214.057,252.380 215.261,253.618 215.804 L 255.868 216.791 257.549 214.157 C 258.473 212.709,260.347 209.380,261.712 206.759 C 264.634 201.150,264.727 201.515,259.732 199.006 C 257.863 198.068,254.768 196.350,252.853 195.189 C 247.190 191.755,247.963 191.752,246.060 195.218 M114.258 233.433 C 119.319 235.218,123.828 242.810,123.828 249.547 C 123.828 265.601,104.598 274.030,93.710 262.748 C 80.157 248.705,95.498 226.819,114.258 233.433 M102.734 241.248 C 95.131 244.541,96.209 257.620,104.223 259.318 C 113.171 261.213,118.972 249.736,112.553 242.839 C 110.530 240.665,105.836 239.904,102.734 241.248 " stroke="none" fill="#eaedec" fill-rule="evenodd"></path><path id="path1" d="M263.281 52.577 C 262.744 52.659,260.811 52.925,258.984 53.167 C 235.535 56.282,221.319 69.984,218.580 92.114 C 217.413 101.536,215.708 103.653,181.976 137.549 C 153.172 166.494,146.023 173.769,125.407 195.117 C 102.996 218.323,104.806 216.734,98.309 218.901 C 67.332 229.231,66.401 273.587,96.986 281.855 C 111.333 285.733,118.750 282.529,134.105 265.820 C 153.957 244.217,244.332 153.446,253.800 145.600 L 255.574 144.130 263.041 144.371 C 290.531 145.260,304.778 131.546,311.529 97.699 C 313.420 88.221,310.811 82.779,304.399 82.826 C 301.728 82.846,299.481 84.683,286.734 97.266 C 284.666 99.307,281.797 102.102,280.357 103.477 L 277.740 105.978 275.101 104.789 C 273.649 104.135,270.703 102.940,268.555 102.134 C 263.823 100.358,264.078 100.578,263.255 97.568 C 262.886 96.220,261.879 93.277,261.018 91.028 L 259.452 86.939 260.214 85.950 C 260.632 85.406,264.797 81.270,269.469 76.758 C 284.007 62.717,284.668 61.910,284.199 58.779 C 283.465 53.886,280.745 52.558,271.302 52.483 C 267.428 52.452,263.818 52.494,263.281 52.577 M195.390 60.403 C 193.220 61.499,192.892 62.645,193.037 68.623 L 193.164 73.890 194.623 75.226 C 196.944 77.352,200.104 77.053,201.379 74.587 C 202.326 72.755,202.385 63.816,201.459 62.396 C 200.010 60.173,197.486 59.345,195.390 60.403 M271.484 60.372 C 271.484 60.748,259.422 72.722,253.418 78.307 C 246.756 84.504,247.045 83.710,249.835 88.141 C 252.965 93.113,254.901 97.371,256.420 102.626 C 258.159 108.642,258.123 108.566,259.320 108.815 C 262.628 109.503,263.924 109.877,265.189 110.508 C 265.966 110.895,269.962 112.317,274.069 113.667 L 281.537 116.123 292.233 105.557 C 298.116 99.746,302.981 95.041,303.044 95.103 C 303.107 95.165,302.901 96.336,302.587 97.705 C 302.273 99.075,301.845 101.426,301.635 102.930 C 300.279 112.635,290.818 127.732,283.349 132.110 C 263.080 143.989,231.900 126.853,227.665 101.507 C 223.976 79.429,235.001 65.575,259.766 61.165 C 264.724 60.282,271.484 59.825,271.484 60.372 M188.281 86.026 C 177.703 87.824,173.734 88.644,168.945 90.018 C 130.916 100.934,99.709 136.276,93.733 175.195 C 92.042 186.214,92.475 210.547,94.363 210.547 C 94.418 210.547,95.878 209.941,97.610 209.200 C 99.341 208.459,101.399 207.732,102.182 207.585 L 103.607 207.318 103.269 204.147 C 99.587 169.704,112.661 138.350,140.183 115.621 C 153.570 104.565,173.544 97.056,193.164 95.702 C 195.957 95.509,200.047 95.228,202.254 95.077 C 205.907 94.827,206.279 94.730,206.424 93.984 C 206.511 93.533,206.922 91.362,207.336 89.160 L 208.088 85.156 200.431 85.209 C 194.830 85.248,191.567 85.467,188.281 86.026 M243.595 105.909 C 241.062 106.590,239.134 109.700,239.624 112.313 C 240.322 116.030,246.334 116.641,248.427 113.207 C 250.816 109.290,247.825 104.772,243.595 105.909 M221.882 112.305 C 225.303 123.166,234.869 133.895,245.072 138.314 C 246.271 138.833,247.255 139.358,247.259 139.480 C 247.269 139.800,241.307 145.476,234.774 151.367 C 228.453 157.066,213.078 172.384,203.014 183.008 C 196.718 189.654,182.927 203.691,175.195 211.323 C 173.262 213.231,167.244 219.243,161.823 224.681 C 156.402 230.120,147.470 239.053,141.975 244.531 C 133.680 252.800,131.410 255.311,128.612 259.310 C 122.709 267.747,116.253 273.042,110.990 273.762 C 97.370 275.624,87.019 268.835,83.947 256.024 C 80.694 242.456,89.141 229.199,102.734 226.539 C 109.141 225.285,110.262 224.753,112.154 222.070 C 114.554 218.668,117.973 214.874,126.583 206.060 C 130.783 201.760,135.968 196.396,138.104 194.141 C 145.467 186.366,155.681 175.918,175.370 156.019 C 186.231 145.042,200.887 130.210,207.938 123.059 C 214.990 115.907,220.901 110.211,221.075 110.399 C 221.248 110.588,221.611 111.445,221.882 112.305 M214.620 131.275 C 209.253 133.130,200.920 140.908,170.285 172.656 C 164.377 178.779,154.097 189.414,147.441 196.289 C 129.251 215.079,129.489 214.766,129.502 219.922 C 129.529 230.636,138.647 232.665,148.439 224.136 C 159.206 214.758,226.083 147.488,227.634 144.475 C 232.257 135.498,224.669 127.802,214.620 131.275 M292.578 146.543 C 291.396 147.415,289.683 148.497,288.770 148.947 C 286.747 149.943,286.714 149.290,289.102 155.533 C 307.939 204.780,280.180 260.076,228.422 276.407 C 210.253 282.140,193.940 282.284,175.020 276.879 C 168.422 274.994,156.396 269.710,150.028 265.897 L 146.736 263.926 146.122 264.867 C 145.784 265.384,144.706 266.865,143.727 268.157 C 142.747 269.450,141.821 270.716,141.668 270.971 C 140.762 272.485,157.112 281.134,167.969 284.883 C 178.737 288.602,196.861 291.539,203.766 290.685 C 219.241 288.770,224.185 287.778,233.328 284.756 C 258.954 276.286,282.779 254.718,296.260 227.784 C 307.869 204.592,307.891 173.291,296.317 147.168 C 295.141 144.512,295.295 144.537,292.578 146.543 M249.414 169.832 C 248.340 169.890,245.703 170.186,243.555 170.489 C 241.406 170.793,238.187 171.165,236.401 171.316 C 232.472 171.647,232.970 171.164,228.738 178.752 C 226.833 182.167,224.446 186.279,223.433 187.891 C 219.055 194.856,219.051 195.028,223.127 201.439 C 224.694 203.905,226.648 207.007,227.469 208.332 C 230.278 212.868,232.826 214.728,245.703 221.642 C 248.389 223.084,251.347 224.869,252.277 225.609 C 254.486 227.366,255.645 227.639,257.144 226.753 C 258.216 226.120,259.034 226.077,265.679 226.308 L 273.028 226.564 273.741 225.087 C 274.134 224.275,275.351 222.034,276.447 220.106 C 277.543 218.179,279.847 213.965,281.568 210.742 C 283.289 207.520,285.177 204.118,285.764 203.183 L 286.831 201.484 285.417 198.691 C 284.639 197.155,283.120 193.262,282.042 190.039 C 279.418 182.192,280.120 182.790,263.258 174.071 C 255.622 170.122,253.886 169.591,249.414 169.832 M255.078 177.747 C 257.450 178.678,267.646 184.130,270.303 185.889 C 273.351 187.906,274.250 189.405,275.194 194.043 C 275.599 196.032,270.798 195.681,265.820 193.358 C 255.427 188.507,254.366 187.916,250.493 184.819 C 245.841 181.098,244.662 179.367,245.682 177.755 C 246.486 176.485,251.850 176.480,255.078 177.747 M238.606 184.379 C 242.061 189.041,242.128 189.255,240.766 191.221 C 240.174 192.075,238.445 195.134,236.922 198.019 C 233.542 204.424,233.790 204.342,231.162 199.916 C 227.372 193.534,227.538 194.283,229.133 190.756 C 230.413 187.927,235.090 180.439,235.544 180.492 C 235.653 180.505,237.031 182.254,238.606 184.379 M74.145 186.686 C 68.836 187.089,66.837 190.892,70.076 194.427 L 71.402 195.874 76.659 196.027 C 84.259 196.249,86.968 194.847,86.877 190.739 C 86.788 186.762,84.159 185.925,74.145 186.686 M316.602 187.360 C 312.669 187.744,311.328 188.874,311.328 191.801 C 311.328 195.435,313.203 196.480,319.727 196.480 C 327.914 196.480,331.450 193.001,327.570 188.764 L 326.233 187.305 322.199 187.256 C 319.980 187.230,317.461 187.277,316.602 187.360 M252.287 194.683 C 254.574 196.055,258.037 197.973,259.982 198.945 C 264.983 201.444,264.875 201.104,262.258 206.109 C 259.210 211.937,256.232 216.797,255.709 216.796 C 255.469 216.796,253.604 215.910,251.563 214.828 C 246.770 212.286,239.918 208.984,239.437 208.984 C 238.862 208.984,238.989 208.116,239.782 206.626 C 240.178 205.882,241.468 203.428,242.650 201.172 C 245.212 196.282,247.610 192.188,247.912 192.188 C 248.032 192.188,250.001 193.310,252.287 194.683 M278.391 204.433 C 278.503 204.544,277.654 206.156,272.598 215.430 L 270.895 218.555 266.502 218.665 C 264.086 218.726,262.109 218.685,262.109 218.575 C 262.109 218.465,262.696 217.448,263.414 216.316 C 264.132 215.184,265.562 212.676,266.592 210.742 C 267.622 208.809,268.903 206.455,269.438 205.511 L 270.410 203.795 274.340 204.053 C 276.500 204.194,278.324 204.365,278.391 204.433 M224.703 214.838 C 222.667 218.099,227.840 223.407,238.673 229.174 C 248.644 234.482,253.374 235.822,254.295 233.599 C 255.258 231.273,254.576 230.442,250.578 229.069 C 241.283 225.876,232.320 220.204,230.145 216.140 C 229.183 214.342,225.555 213.475,224.703 214.838 M221.875 221.365 C 215.994 223.467,225.470 231.854,242.773 239.863 C 247.456 242.030,249.650 241.887,250.151 239.380 C 250.549 237.391,249.664 236.530,246.009 235.353 C 239.061 233.116,228.564 226.938,226.258 223.728 C 224.656 221.498,223.399 220.820,221.875 221.365 M217.344 227.252 C 213.308 229.947,219.825 236.641,232.853 243.185 C 240.800 247.176,244.376 248.203,245.703 246.875 C 247.574 245.004,246.231 243.164,241.992 241.790 C 233.861 239.154,225.193 233.657,220.599 228.223 C 219.563 226.998,218.292 226.619,217.344 227.252 M102.451 232.996 C 92.764 235.733,87.526 243.789,89.096 253.538 C 91.775 270.170,115.342 272.860,121.830 257.274 C 127.856 242.798,116.797 228.943,102.451 232.996 M213.146 234.308 C 211.509 236.117,215.410 241.626,220.997 245.397 C 227.056 249.487,237.577 253.906,241.255 253.906 C 241.800 253.906,242.578 252.402,242.578 251.348 C 242.578 249.714,241.947 249.263,237.695 247.864 C 233.623 246.523,228.304 243.918,224.489 241.395 C 221.614 239.494,220.326 238.353,217.274 235.000 C 215.823 233.406,214.208 233.135,213.146 234.308 M210.707 240.819 C 206.909 246.615,224.001 259.747,235.352 259.753 C 240.240 259.755,239.111 255.607,233.858 254.264 C 226.247 252.318,218.038 247.189,215.441 242.758 C 213.722 239.825,211.859 239.061,210.707 240.819 M109.180 240.672 C 113.771 241.943,116.383 247.219,115.032 252.493 C 112.634 261.850,100.334 262.154,97.834 252.918 C 95.702 245.042,101.676 238.593,109.180 240.672 M195.508 299.164 C 192.885 300.785,192.785 301.078,192.652 307.559 C 192.460 316.859,194.789 320.266,199.625 317.765 C 202.283 316.391,203.729 304.615,201.669 301.126 C 200.372 298.931,197.412 297.988,195.508 299.164 " stroke="none" fill="#122029" fill-rule="evenodd"></path><path id="path2" d="M266.313 60.433 C 266.799 60.526,267.502 60.522,267.876 60.425 C 268.249 60.327,267.852 60.250,266.992 60.255 C 266.133 60.259,265.827 60.339,266.313 60.433 M265.227 66.699 L 261.523 70.508 265.332 66.805 C 268.869 63.365,269.318 62.891,269.035 62.891 C 268.977 62.891,267.263 64.604,265.227 66.699 M241.699 67.020 C 240.185 67.842,240.356 68.126,241.895 67.343 C 243.367 66.594,243.628 66.400,243.132 66.422 C 242.935 66.430,242.290 66.700,241.699 67.020 M202.060 70.703 C 202.060 71.670,202.136 72.065,202.229 71.582 C 202.322 71.099,202.322 70.308,202.229 69.824 C 202.136 69.341,202.060 69.736,202.060 70.703 M235.337 71.973 L 233.398 74.023 235.449 72.085 C 237.355 70.284,237.679 69.922,237.388 69.922 C 237.326 69.922,236.403 70.845,235.337 71.973 M259.745 72.168 L 258.398 73.633 259.863 72.287 C 261.227 71.034,261.508 70.703,261.209 70.703 C 261.144 70.703,260.485 71.362,259.745 72.168 M254.077 77.441 L 252.930 78.711 254.199 77.564 C 254.897 76.933,255.469 76.361,255.469 76.294 C 255.469 75.992,255.146 76.258,254.077 77.441 M227.090 93.359 C 227.090 95.186,227.157 95.933,227.239 95.020 C 227.321 94.106,227.321 92.612,227.239 91.699 C 227.157 90.786,227.090 91.533,227.090 93.359 M312.208 91.602 C 312.212 92.461,312.292 92.767,312.386 92.281 C 312.479 91.795,312.476 91.092,312.378 90.718 C 312.280 90.345,312.204 90.742,312.208 91.602 M300.185 97.754 L 297.461 100.586 300.022 98.133 C 301.430 96.785,302.704 95.803,302.854 95.953 C 303.003 96.102,303.125 95.931,303.125 95.573 C 303.125 94.670,303.215 94.603,300.185 97.754 M300.330 101.295 C 299.337 103.053,297.919 105.818,297.177 107.438 C 295.887 110.258,293.079 114.412,289.688 118.520 C 283.862 125.575,272.620 129.857,260.555 129.616 C 257.154 129.548,254.453 129.624,254.552 129.785 C 254.652 129.946,254.460 130.078,254.125 130.078 C 253.085 130.078,253.366 131.980,254.480 132.487 C 255.010 132.729,255.347 133.084,255.228 133.276 C 255.109 133.470,255.504 133.517,256.120 133.382 C 256.855 133.221,257.054 133.262,256.713 133.503 C 256.152 133.900,258.748 134.730,263.189 135.575 C 267.408 136.379,279.416 135.125,278.694 133.957 C 278.574 133.762,278.747 133.707,279.080 133.835 C 282.640 135.201,292.424 124.818,298.005 113.753 C 300.253 109.295,303.033 98.996,302.210 98.173 C 302.168 98.132,301.322 99.537,300.330 101.295 M291.985 105.957 L 288.086 109.961 292.090 106.062 C 294.292 103.918,296.094 102.116,296.094 102.058 C 296.094 101.776,295.606 102.238,291.985 105.957 M249.317 109.961 C 249.322 110.820,249.402 111.126,249.495 110.640 C 249.588 110.154,249.585 109.451,249.487 109.077 C 249.389 108.704,249.313 109.102,249.317 109.961 M283.771 113.770 L 282.227 115.430 283.887 113.886 C 285.431 112.450,285.726 112.109,285.431 112.109 C 285.367 112.109,284.620 112.856,283.771 113.770 M211.516 119.238 L 207.617 123.242 211.621 119.343 C 213.823 117.199,215.625 115.397,215.625 115.339 C 215.625 115.057,215.137 115.519,211.516 119.238 M238.477 122.656 C 239.535 123.730,240.488 124.609,240.596 124.609 C 240.703 124.609,239.925 123.730,238.867 122.656 C 237.809 121.582,236.856 120.703,236.748 120.703 C 236.641 120.703,237.418 121.582,238.477 122.656 M230.228 127.930 C 230.846 128.789,231.659 129.767,232.035 130.103 C 232.411 130.439,233.048 131.349,233.449 132.127 C 234.433 134.031,238.465 138.542,239.183 138.542 C 240.048 138.542,242.188 139.500,242.188 139.888 C 242.188 140.074,238.126 144.316,233.161 149.313 C 228.197 154.310,222.414 160.332,220.310 162.695 C 218.206 165.059,215.397 168.047,214.068 169.336 C 212.738 170.625,209.844 173.789,207.637 176.367 C 205.429 178.945,199.160 185.466,193.706 190.858 C 188.252 196.250,181.855 202.659,179.492 205.102 C 177.129 207.545,175.450 209.198,175.760 208.775 C 176.071 208.353,173.007 211.348,168.952 215.430 C 164.896 219.512,161.729 222.588,161.913 222.266 C 162.097 221.943,161.294 222.667,160.128 223.873 C 156.981 227.130,148.104 235.216,142.804 239.655 C 140.242 241.800,137.605 244.014,136.944 244.575 C 135.830 245.521,130.658 248.828,130.294 248.828 C 130.205 248.828,130.076 248.461,130.008 248.013 C 129.886 247.222,125.740 258.112,125.655 259.444 C 125.633 259.804,125.446 259.995,125.241 259.868 C 125.019 259.731,124.982 259.937,125.150 260.373 C 125.305 260.778,125.313 260.990,125.167 260.844 C 125.021 260.698,124.248 261.582,123.450 262.809 C 120.428 267.453,111.258 273.360,106.880 273.482 L 105.273 273.527 106.836 273.829 C 113.389 275.092,121.225 269.868,128.612 259.310 C 131.410 255.311,133.680 252.800,141.975 244.531 C 147.470 239.053,156.402 230.120,161.823 224.681 C 167.244 219.243,173.262 213.231,175.195 211.323 C 182.927 203.691,196.718 189.654,203.014 183.008 C 213.078 172.384,228.453 157.066,234.774 151.367 C 241.307 145.476,247.269 139.800,247.259 139.480 C 247.255 139.358,246.271 138.833,245.072 138.314 C 241.491 136.763,234.758 132.093,231.838 129.135 C 229.919 127.191,229.440 126.832,230.228 127.930 M197.656 133.398 C 196.056 135.010,194.834 136.328,194.941 136.328 C 195.049 136.328,196.446 135.010,198.047 133.398 C 199.647 131.787,200.869 130.469,200.762 130.469 C 200.654 130.469,199.257 131.787,197.656 133.398 M250.000 131.109 C 250.000 131.373,254.317 133.314,254.498 133.132 C 254.582 133.049,253.604 132.518,252.325 131.953 C 251.046 131.388,250.000 131.008,250.000 131.109 M202.713 139.746 L 201.367 141.211 202.832 139.865 C 204.195 138.612,204.476 138.281,204.178 138.281 C 204.113 138.281,203.454 138.940,202.713 139.746 M265.532 144.808 C 266.018 144.901,266.721 144.897,267.094 144.800 C 267.468 144.702,267.070 144.625,266.211 144.630 C 265.352 144.634,265.046 144.714,265.532 144.808 M251.733 147.363 L 250.586 148.633 251.855 147.486 C 252.554 146.854,253.125 146.283,253.125 146.216 C 253.125 145.914,252.803 146.180,251.733 147.363 M171.463 147.949 L 170.117 149.414 171.582 148.068 C 172.388 147.328,173.047 146.668,173.047 146.603 C 173.047 146.305,172.716 146.586,171.463 147.949 M191.186 150.879 L 190.039 152.148 191.309 151.001 C 192.007 150.370,192.578 149.799,192.578 149.732 C 192.578 149.430,192.256 149.696,191.186 150.879 M178.699 152.441 L 176.367 154.883 178.809 152.551 C 181.076 150.386,181.429 150.000,181.140 150.000 C 181.080 150.000,179.981 151.099,178.699 152.441 M216.395 156.543 L 213.867 159.180 216.504 156.652 C 217.954 155.262,219.141 154.075,219.141 154.015 C 219.141 153.728,218.743 154.094,216.395 156.543 M238.452 159.863 L 237.305 161.133 238.574 159.986 C 239.272 159.354,239.844 158.783,239.844 158.716 C 239.844 158.414,239.521 158.680,238.452 159.863 M157.989 161.426 L 156.445 163.086 158.105 161.542 C 159.649 160.106,159.945 159.766,159.650 159.766 C 159.586 159.766,158.839 160.513,157.989 161.426 M178.699 163.770 L 176.367 166.211 178.809 163.879 C 181.076 161.714,181.429 161.328,181.140 161.328 C 181.080 161.328,179.981 162.427,178.699 163.770 M207.993 164.941 L 206.055 166.992 208.105 165.054 C 209.233 163.988,210.156 163.065,210.156 163.003 C 210.156 162.711,209.794 163.036,207.993 164.941 M159.570 171.875 C 156.999 174.453,154.983 176.563,155.090 176.563 C 155.198 176.563,157.390 174.453,159.961 171.875 C 162.532 169.297,164.548 167.188,164.441 167.188 C 164.333 167.188,162.142 169.297,159.570 171.875 M200.188 173.145 L 196.289 177.148 200.293 173.250 C 202.495 171.105,204.297 169.303,204.297 169.246 C 204.297 168.963,203.809 169.426,200.188 173.145 M148.218 171.191 L 147.070 172.461 148.340 171.314 C 149.523 170.244,149.789 169.922,149.487 169.922 C 149.420 169.922,148.849 170.493,148.218 171.191 M168.346 174.512 L 166.211 176.758 168.457 174.623 C 170.544 172.639,170.882 172.266,170.592 172.266 C 170.531 172.266,169.520 173.276,168.346 174.512 M163.464 179.395 L 161.133 181.836 163.574 179.504 C 165.842 177.339,166.194 176.953,165.906 176.953 C 165.845 176.953,164.747 178.052,163.464 179.395 M216.406 181.836 C 215.457 182.803,214.769 183.594,214.876 183.594 C 214.984 183.594,215.848 182.803,216.797 181.836 C 217.746 180.869,218.434 180.078,218.327 180.078 C 218.219 180.078,217.355 180.869,216.406 181.836 M246.094 180.982 C 246.094 181.049,246.665 181.620,247.363 182.251 L 248.633 183.398 247.486 182.129 C 246.416 180.946,246.094 180.680,246.094 180.982 M187.292 186.426 L 184.961 188.867 187.402 186.536 C 189.670 184.370,190.022 183.984,189.734 183.984 C 189.673 183.984,188.575 185.083,187.292 186.426 M155.265 187.988 L 151.758 191.602 155.371 188.094 C 158.727 184.836,159.162 184.375,158.879 184.375 C 158.820 184.375,157.194 186.001,155.265 187.988 M143.750 188.086 C 142.801 189.053,142.113 189.844,142.220 189.844 C 142.328 189.844,143.192 189.053,144.141 188.086 C 145.089 187.119,145.778 186.328,145.670 186.328 C 145.563 186.328,144.699 187.119,143.750 188.086 M137.879 194.434 L 135.352 197.070 137.988 194.543 C 139.438 193.152,140.625 191.966,140.625 191.906 C 140.625 191.618,140.227 191.984,137.879 194.434 M175.191 198.145 L 168.945 204.492 175.293 198.247 C 181.190 192.445,181.817 191.797,181.538 191.797 C 181.482 191.797,178.626 194.653,175.191 198.145 M126.751 205.957 L 122.461 210.352 126.855 206.061 C 129.272 203.702,131.250 201.724,131.250 201.667 C 131.250 201.385,130.736 201.875,126.751 205.957 M269.438 205.511 C 268.903 206.455,267.622 208.809,266.592 210.742 C 265.562 212.676,264.132 215.184,263.414 216.316 C 262.696 217.448,262.109 218.465,262.109 218.575 C 262.109 218.685,264.086 218.726,266.502 218.665 L 270.895 218.555 272.598 215.430 C 277.654 206.156,278.503 204.544,278.391 204.433 C 278.324 204.365,276.500 204.194,274.340 204.053 L 270.410 203.795 269.438 205.511 M164.233 209.082 L 163.086 210.352 164.355 209.204 C 165.539 208.135,165.805 207.813,165.503 207.813 C 165.436 207.813,164.864 208.384,164.233 209.082 M117.364 215.723 L 115.820 217.383 117.480 215.839 C 119.024 214.403,119.320 214.063,119.025 214.063 C 118.961 214.063,118.214 214.810,117.364 215.723 M152.130 220.801 L 150.586 222.461 152.246 220.917 C 153.790 219.481,154.086 219.141,153.790 219.141 C 153.726 219.141,152.979 219.888,152.130 220.801 M266.113 226.441 C 266.489 226.539,267.104 226.539,267.480 226.441 C 267.856 226.343,267.549 226.263,266.797 226.263 C 266.045 226.263,265.737 226.343,266.113 226.441 M95.410 228.902 C 93.646 229.977,93.811 230.240,95.605 229.213 C 97.410 228.180,97.483 228.125,97.038 228.126 C 96.841 228.127,96.108 228.476,95.410 228.902 M136.621 229.573 C 137.104 229.666,137.896 229.666,138.379 229.573 C 138.862 229.479,138.467 229.403,137.500 229.403 C 136.533 229.403,136.138 229.479,136.621 229.573 M91.004 232.715 L 88.477 235.352 91.113 232.824 C 93.562 230.476,93.929 230.078,93.641 230.078 C 93.581 230.078,92.395 231.265,91.004 232.715 M106.157 240.511 C 106.643 240.604,107.346 240.601,107.719 240.503 C 108.093 240.405,107.695 240.329,106.836 240.333 C 105.977 240.337,105.671 240.417,106.157 240.511 M97.383 249.609 C 97.383 250.791,97.456 251.274,97.545 250.684 C 97.635 250.093,97.635 249.126,97.545 248.535 C 97.456 247.944,97.383 248.428,97.383 249.609 M145.880 253.223 L 144.336 254.883 145.996 253.339 C 147.540 251.903,147.836 251.563,147.540 251.563 C 147.476 251.563,146.729 252.310,145.880 253.223 M104.987 267.861 C 105.690 267.948,106.744 267.946,107.331 267.857 C 107.918 267.768,107.344 267.697,106.055 267.699 C 104.766 267.701,104.285 267.774,104.987 267.861 M125.370 274.902 L 124.023 276.367 125.488 275.021 C 126.852 273.768,127.133 273.438,126.834 273.438 C 126.769 273.438,126.110 274.097,125.370 274.902 " stroke="none" fill="#7799a4" fill-rule="evenodd"></path></g></svg>